<?xml version="1.0" encoding="UTF-8" standalone="no"?>
<!-- Created with Inkscape (http://www.inkscape.org/) -->

<svg
   width="1000"
   height="1000"
   viewBox="0 0 264.58333 264.58333"
   version="1.1"
   id="svg997"
   inkscape:version="1.2.2 (732a01da63, 2022-12-09)"
   sodipodi:docname="header.svg"
   inkscape:export-filename="..\data\www\header.png"
   inkscape:export-xdpi="28.800037"
   inkscape:export-ydpi="28.800037"
   xmlns:inkscape="http://www.inkscape.org/namespaces/inkscape"
   xmlns:sodipodi="http://sodipodi.sourceforge.net/DTD/sodipodi-0.dtd"
   xmlns="http://www.w3.org/2000/svg"
   xmlns:svg="http://www.w3.org/2000/svg">
  <sodipodi:namedview
     id="namedview999"
     pagecolor="#ffffff"
     bordercolor="#000000"
     borderopacity="0.25"
     inkscape:showpageshadow="2"
     inkscape:pageopacity="0.0"
     inkscape:pagecheckerboard="0"
     inkscape:deskcolor="#d1d1d1"
     inkscape:document-units="mm"
     showgrid="false"
     inkscape:zoom="0.74564394"
     inkscape:cx="356.06807"
     inkscape:cy="498.89764"
     inkscape:window-width="1920"
     inkscape:window-height="1017"
     inkscape:window-x="1912"
     inkscape:window-y="-8"
     inkscape:window-maximized="1"
     inkscape:current-layer="layer1" />
  <defs
     id="defs994">
    <inkscape:path-effect
       effect="bend_path"
       id="path-effect1811"
       is_visible="true"
       lpeversion="1"
       bendpath="M 37.972568,136.2585 C 73.542082,93.915931 118.69674,77.133749 171.2923,80.193983"
       prop_scale="1"
       scale_y_rel="false"
       vertical="false"
       hide_knot="false"
       bendpath-nodetypes="cc" />
  </defs>
  <g
     inkscape:label="Layer 1"
     inkscape:groupmode="layer"
     id="layer1">
    <path
       class="st6"
       d="M 259.96488,74.137012 C 251.82034,43.438415 227.66519,20.118598 201.42169,16.08112 175.17821,11.974058 146.28948,28.959224 130.34847,54.158563 112.17988,30.490693 81.898949,16.220351 56.142738,22.694225 30.386507,29.168073 8.3893165,54.506615 3.0988592,85.83173 c -5.151252,30.48977 5.151226,62.92871 22.0668058,86.87499 16.915555,23.94633 39.608879,40.65307 62.65025,54.92341 12.878105,7.9357 26.313105,15.45373 40.653025,16.91555 l 21.09227,-0.97454 c 14.13111,-2.78447 26.87,-11.41627 38.91277,-20.53536 21.71875,-16.28907 42.81099,-34.94494 57.42938,-60.35309 14.6184,-25.40815 21.99722,-58.61278 14.06152,-88.545678 z"
       id="path474"
       style="fill:#f4a2d4;stroke-width:0.696114" />
    <g
       aria-label="NORM'S"
       id="text1746"
       style="font-size:50.8px;line-height:0;font-family:Gabriola;-inkscape-font-specification:Gabriola;stroke-width:0.264583"
       inkscape:path-effect="#path-effect1811"
       class="UnoptimicedTransforms"
       transform="matrix(1.2953673,0,0,1.2953673,1.3167094,-22.365502)">
      <path
         d="m 35.3396,121.345 c 0.793283,0.12822 1.720217,0.27749 2.703508,0.43947 0.995756,0.15116 2.050249,0.31952 3.157219,0.50712 1.101408,0.18191 2.240369,0.37901 3.413251,0.593 1.17992,0.20732 2.361039,0.42504 3.542838,0.65351 1.188388,0.22191 2.356017,0.45282 3.502761,0.69177 1.146323,0.23885 2.246174,0.47773 3.297727,0.71376 1.051782,0.22371 2.038808,0.44291 2.956041,0.65304 0.91795,0.20285 1.757323,0.39283 2.479073,0.55671 -1.492293,-1.64353 -2.844534,-3.13933 -4.062911,-4.49491 -1.21797,-1.35513 -2.307332,-2.58254 -3.27164,-3.68722 -0.963936,-1.10425 -1.811737,-2.08849 -2.545133,-2.9548 -0.738879,-0.87235 -1.372176,-1.64352 -1.90104,-2.31513 -0.527054,-0.68409 -0.960691,-1.27362 -1.301489,-1.76887 -0.339007,-0.50796 -0.597775,-0.94302 -0.776682,-1.30529 -0.15492,-0.3059 -0.244774,-0.59215 -0.269372,-0.85887 -0.02268,-0.27951 5.32e-4,-0.53863 0.06959,-0.77711 0.07653,-0.24512 0.192451,-0.46932 0.34757,-0.67221 0.157154,-0.21571 0.341588,-0.41609 0.553109,-0.60079 0.506122,-0.44193 1.112821,-0.80733 1.817289,-1.09266 l 0.08063,0.0944 c -0.0022,0.75237 0.163119,1.59233 0.495997,2.51922 0.340378,0.9205 0.790433,1.88334 1.349461,2.88995 0.55357,1.00038 1.184491,2.01543 1.891587,3.04722 0.714078,1.02529 1.44665,2.02375 2.19595,2.99622 0.743689,0.96611 1.47303,1.8853 2.185987,2.75713 0.718728,0.86454 1.365388,1.64018 1.932377,2.31853 -0.01694,-0.02 1.494773,1.76261 1.477836,1.74265 -0.0013,-0.002 1.439072,1.69688 1.43773,1.69529 -0.0028,-0.003 1.477355,1.699 1.474549,1.69577 0.494426,0.56834 1.00847,1.15208 1.54235,1.75176 -0.339979,0.39211 -0.677874,0.78581 -1.013683,1.18107 -0.06168,0.045 -0.123337,0.09 -0.184967,0.13504 -0.425327,-0.0872 -0.969593,-0.20758 -1.66072,-0.36272 -0.680571,-0.16467 -1.4741,-0.35551 -2.348746,-0.56066 -0.877975,-0.20593 -1.846269,-0.42862 -2.892881,-0.661 -1.042225,-0.23888 -2.135386,-0.47766 -3.278112,-0.71328 -1.13664,-0.24192 -2.303229,-0.47874 -3.499452,-0.7089 -1.196328,-0.23018 -2.389342,-0.44619 -3.578386,-0.64847 -1.182498,-0.20889 -2.343081,-0.39939 -3.480038,-0.57279 -1.129746,-0.18008 -2.198609,-0.33795 -3.199682,-0.47612 -1.005594,-0.14359 -1.931471,-0.26804 -2.761379,-0.37518 -0.827211,-0.10679 -1.546749,-0.19394 -2.126088,-0.2617 1.344295,1.23975 2.646146,2.4601 3.90488,3.6588 1.258839,1.18606 2.460708,2.33841 3.604364,3.4545 1.143665,1.11609 2.224847,2.18602 3.242008,3.20767 1.017014,1.00949 1.956211,1.95881 2.816061,2.84611 0.606315,0.6251 1.115057,1.16745 1.525557,1.62674 0.416254,0.45287 0.747644,0.85222 0.9938,1.19748 0.245714,0.33344 0.413097,0.63065 0.502074,0.89149 0.09465,0.25452 0.120736,0.49296 0.07834,0.71557 -0.0362,0.22812 -0.131276,0.45454 -0.285152,0.67994 -0.153941,0.22548 -0.353108,0.47829 -0.597362,0.75967 -0.07492,0.0863 -0.14976,0.1727 -0.224511,0.25916 -0.04431,0.0513 -0.102763,0.1126 -0.175387,0.18419 -0.06639,0.077 -0.155042,0.17368 -0.266147,0.29049 -0.07005,0.0181 -0.140107,0.0363 -0.210167,0.0546 -0.373706,-0.79666 -0.84344,-1.62686 -1.409287,-2.48954 -0.560211,-0.86919 -1.186118,-1.75101 -1.878218,-2.64363 -0.698367,-0.89809 -1.439102,-1.7982 -2.222798,-2.69861 -0.784116,-0.9127 -1.586451,-1.80439 -2.408424,-2.67371 -0.822054,-0.8694 -1.641924,-1.70937 -2.46113,-2.51936 -0.819391,-0.82261 -1.606024,-1.59326 -2.362145,-2.3125 -0.756128,-0.71924 -1.464723,-1.37825 -2.127817,-1.97787 -0.66315,-0.59966 -1.241714,-1.1182 -1.737717,-1.55715 -0.266468,-0.23582 -0.515196,-0.41026 -0.746662,-0.52314 -0.231127,-0.12571 -0.464148,-0.17413 -0.699121,-0.14483 -0.234628,0.0164 -0.477533,0.1115 -0.728027,0.2856 -0.250384,0.17402 -0.531079,0.44039 -0.839957,0.79931 -0.21877,0.25421 -0.453454,0.55365 -0.702856,0.89814 -0.242909,0.33682 -0.510809,0.73079 -0.801395,1.18099 -0.313277,-0.19253 -0.626727,-0.3848 -0.940348,-0.57681 0.412322,-0.73834 0.794262,-1.40718 1.138675,-2.00001 0.344923,-0.59371 0.66786,-1.12469 0.965492,-1.59134 0.297749,-0.46682 0.577687,-0.87829 0.837738,-1.23378 0.260564,-0.36855 0.511498,-0.68644 0.751518,-0.9535 0.246725,-0.27452 0.488647,-0.48636 0.724725,-0.63553 0.242812,-0.15659 0.50278,-0.26341 0.779392,-0.32037 0.283346,-0.0643 0.602559,-0.0813 0.957255,-0.0507 0.355259,0.0177 0.772511,0.0667 1.250721,0.14806 10e-7,0 10e-7,-1e-5 2e-6,-1e-5 z"
         id="path1798"
         inkscape:original-d="m 51.555115,82.188456 q 0.570507,1.016992 1.289843,2.269628 0.731739,1.240235 1.550293,2.629297 0.818555,1.37666 1.699121,2.852539 0.892969,1.475879 1.79834,2.96416 0.917774,1.488282 1.810742,2.939356 0.892969,1.451074 1.723926,2.790527 0.843359,1.327051 1.5875,2.492867 0.756543,1.16582 1.364258,2.0836 0,-3.32383 0.0124,-6.052346 0.0124,-2.728515 0.04961,-4.92373 0.03721,-2.195215 0.08682,-3.894336 0.04961,-1.711523 0.124023,-2.988965 0.08682,-1.289844 0.186036,-2.182812 0.111621,-0.905371 0.248046,-1.488281 0.111622,-0.496094 0.310059,-0.818555 0.21084,-0.334863 0.471289,-0.533301 0.272852,-0.198437 0.58291,-0.272851 0.322461,-0.08682 0.669727,-0.08682 0.830957,0 1.723926,0.359668 v 0.124023 q -0.607715,0.855762 -1.0542,2.232422 -0.434082,1.37666 -0.74414,3.063379 -0.310059,1.674317 -0.508496,3.534668 -0.186036,1.860352 -0.297657,3.695898 -0.111621,1.823145 -0.173632,3.509864 -0.04961,1.686718 -0.08682,3.013769 -0.02481,1.165826 -0.04961,2.282036 -0.02481,1.10381 -0.04961,2.22002 -0.0124,1.10381 -0.0248,2.24482 -0.0124,1.12862 -0.0124,2.33164 l -1.513086,0.19844 -0.223242,-0.0248 q -0.37207,-0.5209 -0.95498,-1.38907 -0.570508,-0.88056 -1.289844,-2.00918 -0.719336,-1.12861 -1.562695,-2.46806 -0.830957,-1.33946 -1.736328,-2.79053 -0.892969,-1.451077 -1.823145,-2.964163 -0.930176,-1.513086 -1.847949,-3.001368 -0.905371,-1.488281 -1.773535,-2.902148 -0.855762,-1.413867 -1.612305,-2.654101 -0.756543,-1.252637 -1.37666,-2.282032 -0.620117,-1.029394 -1.054199,-1.74873 -0.02481,2.740918 -0.08682,5.34541 -0.04961,2.59209 -0.136425,4.985742 -0.08682,2.393652 -0.198438,4.55166 -0.09922,2.14561 -0.223242,3.99356 -0.08682,1.30224 -0.186035,2.22002 -0.08682,0.91777 -0.223242,1.53789 -0.124024,0.60771 -0.322461,0.96738 -0.186035,0.35967 -0.471289,0.5333 -0.285254,0.18604 -0.682129,0.23565 -0.396875,0.0496 -0.942578,0.0496 h -0.334864 q -0.09922,0 -0.248046,-0.0124 -0.148829,0 -0.384473,-0.0124 l -0.173633,-0.12402 q 0.533301,-1.20303 0.942578,-2.69131 0.42168,-1.48828 0.731738,-3.1502 0.310059,-1.67431 0.533301,-3.447851 0.235645,-1.785938 0.384473,-3.571875 0.148828,-1.785938 0.235644,-3.509863 0.09922,-1.736328 0.148829,-3.299024 0.04961,-1.562695 0.06201,-2.902148 0.0124,-1.339453 0.0124,-2.331641 0,-0.5333 -0.08682,-0.905371 -0.07441,-0.384472 -0.297656,-0.620117 -0.21084,-0.248047 -0.58291,-0.359668 -0.37207,-0.111621 -0.967383,-0.111621 -0.42168,0 -0.95498,0.04961 -0.520899,0.04961 -1.190625,0.148829 l -0.136426,-1.091407 q 1.041797,-0.235644 1.885156,-0.421679 0.843359,-0.186036 1.525488,-0.310059 0.682129,-0.124023 1.227832,-0.186035 0.558106,-0.07441 1.00459,-0.07441 0.458887,0 0.79375,0.111621 0.347266,0.111621 0.63252,0.359668 0.297656,0.248047 0.570507,0.669726 0.285254,0.409278 0.620118,1.016993 z" />
      <path
         d="m 78.936884,119.02746 c -1.368797,0.96011 -2.775817,1.63066 -4.250222,2.01459 -1.473886,0.38378 -2.965687,0.45453 -4.491229,0.20631 -1.51761,-0.25331 -3.046037,-0.84192 -4.580932,-1.77667 -1.531951,-0.94589 -3.027857,-2.27871 -4.458552,-4.01292 -0.905491,-1.09758 -1.690936,-2.25099 -2.348647,-3.46634 -0.657708,-1.21533 -1.158218,-2.45644 -1.494235,-3.72707 -0.341174,-1.27688 -0.505569,-2.55979 -0.486886,-3.84849 0.01356,-1.29498 0.237221,-2.56878 0.675377,-3.816 0.438053,-1.246928 1.099034,-2.44737 1.983662,-3.590241 0.884401,-1.142578 2.016961,-2.194374 3.391798,-3.137179 1.674979,-1.148629 3.397051,-1.934786 5.133615,-2.357252 1.736701,-0.422499 3.423519,-0.450366 5.039197,-0.09309 1.625476,0.352448 3.14237,1.109733 4.553741,2.258079 1.421201,1.1447 2.668874,2.695607 3.776678,4.64024 0.702474,1.233118 1.275976,2.502233 1.729869,3.801693 0.453855,1.29936 0.768262,2.59505 0.951263,3.88301 0.178861,1.28096 0.219991,2.53662 0.129328,3.76619 -0.09493,1.22272 -0.346828,2.38829 -0.753031,3.5007 -0.406344,1.11278 -0.976853,2.15013 -1.713898,3.12216 -0.737048,0.97202 -1.663317,1.84417 -2.786896,2.63228 z m -0.45696,-1.64544 c 0.801167,-0.55686 1.445763,-1.18361 1.938185,-1.88918 0.492263,-0.70534 0.848382,-1.46547 1.069028,-2.28526 0.227724,-0.82415 0.328384,-1.7041 0.300818,-2.64146 -0.02756,-0.93718 -0.168085,-1.90879 -0.424668,-2.91348 -0.253393,-1.01621 -0.61072,-2.05569 -1.075837,-3.11513 -0.457431,-1.06408 -1.010891,-2.13833 -1.664618,-3.21832 -1.163552,-1.922228 -2.383518,-3.456152 -3.688176,-4.595968 -1.299454,-1.150677 -2.618903,-1.945468 -3.961575,-2.378811 -1.346097,-0.440009 -2.682797,-0.545204 -3.998225,-0.313178 -1.311108,0.219563 -2.543812,0.724607 -3.679566,1.509687 -0.954723,0.659945 -1.726242,1.398611 -2.311398,2.206317 -0.585296,0.8079 -1.00526,1.664363 -1.260132,2.563943 -0.246987,0.89388 -0.337824,1.82667 -0.274226,2.79621 0.06361,0.96969 0.266537,1.95547 0.605749,2.95804 0.34179,0.99029 0.804007,1.99227 1.383691,3.00868 0.58203,1.00413 1.262696,1.99865 2.038615,2.98765 1.386931,1.76782 2.7879,3.15909 4.176772,4.18099 1.392069,1.01086 2.735213,1.70902 4.024863,2.09881 1.285618,0.38348 2.49929,0.48711 3.649749,0.31185 1.153068,-0.18704 2.197873,-0.60893 3.150951,-1.27139 z"
         id="path1800"
         inkscape:original-d="m 82.734606,109.26277 q -2.492871,0 -4.576465,-0.86816 -2.083594,-0.86817 -3.59668,-2.57969 -1.500683,-1.71152 -2.344043,-4.254 -0.830957,-2.554887 -0.830957,-5.928324 0,-2.133203 0.347266,-4.167187 0.347265,-2.033985 1.041797,-3.832325 0.694531,-1.810742 1.723925,-3.311425 1.029395,-1.513086 2.406055,-2.604492 1.37666,-1.091407 3.088184,-1.699122 1.711523,-0.607714 3.75791,-0.607714 2.492871,0 4.576465,0.868164 2.083593,0.868164 3.584277,2.579687 1.513086,1.711524 2.344043,4.266406 0.843359,2.554883 0.843359,5.915918 0,2.133203 -0.347265,4.167188 -0.347266,2.033984 -1.041797,3.844726 -0.694532,1.79834 -1.723926,3.31143 -1.029395,1.50068 -2.406055,2.59209 -1.37666,1.0914 -3.088183,1.69912 -1.711524,0.60771 -3.75791,0.60771 z m 0.558105,-1.6123 q 1.438672,0 2.616895,-0.47129 1.178222,-0.47129 2.095996,-1.32705 0.930175,-0.85576 1.612304,-2.07119 0.682129,-1.21543 1.116211,-2.70372 0.446485,-1.500679 0.657324,-3.224604 0.223243,-1.723926 0.223243,-3.621485 0,-3.373437 -0.669727,-5.853906 -0.657324,-2.492871 -1.79834,-4.117578 -1.141015,-1.637109 -2.666504,-2.430859 -1.513086,-0.806153 -3.224609,-0.806153 -1.438672,0 -2.616894,0.471289 -1.178223,0.471289 -2.108399,1.327051 -0.917773,0.855762 -1.599902,2.071191 -0.682129,1.21543 -1.128613,2.716114 -0.434082,1.488281 -0.657325,3.224609 -0.21084,1.723926 -0.21084,3.609082 0,3.373437 0.657325,5.866309 0.669726,2.48047 1.810742,4.11758 1.141015,1.6247 2.654101,2.43086 1.525489,0.79375 3.237012,0.79375 z" />
      <path
         d="m 83.436989,86.898833 c -0.156786,-0.30921 -0.321936,-0.558453 -0.496074,-0.747724 -0.174102,-0.189231 -0.376647,-0.31299 -0.607851,-0.370838 -0.222247,-0.06238 -0.488316,-0.05576 -0.797553,0.02067 -0.309086,0.07639 -0.676937,0.225901 -1.101299,0.449619 -0.582546,0.307112 -1.30112,0.760407 -2.141951,1.362 -0.228898,-0.293305 -0.458149,-0.586377 -0.687753,-0.879216 0.750432,-0.572051 1.582991,-1.185231 2.495476,-1.831463 0.922299,-0.651543 1.881788,-1.295357 2.878381,-1.929232 1.005755,-0.638444 2.031669,-1.244447 3.076364,-1.817077 1.050327,-0.584391 2.080738,-1.098754 3.086579,-1.54437 1.328184,-0.588421 2.613333,-1.022068 3.843768,-1.304353 0.02068,-0.0046 0.04135,-0.0091 0.062,-0.01363 1.247304,-0.280099 2.392767,-0.347278 3.426923,-0.209967 1.031793,0.12967 1.928715,0.486086 2.689988,1.061024 0.762026,0.575506 1.338504,1.425119 1.742414,2.543835 0.37286,1.03272 0.5136,2.052885 0.43412,3.057191 -0.0734,0.993764 -0.33734,1.957671 -0.78464,2.895844 -0.43857,0.934981 -1.050348,1.831218 -1.831865,2.697275 -0.185487,0.205554 -0.378692,0.408427 -0.579623,0.608745 -0.645748,0.643932 -1.37044,1.260619 -2.174949,1.855003 1.611388,1.071884 2.260788,1.511284 3.872176,2.583168 -0.0014,-9.54e-4 0.158112,0.104842 0.156675,0.103889 0,0 0,0 0,0 1.065066,0.704079 2.006676,1.319323 2.853256,1.853435 0.88259,0.551031 1.66103,1.019162 2.34908,1.40463 0.68412,0.377165 1.30614,0.696077 1.8711,0.95553 0.44871,0.21389 0.85667,0.386749 1.22589,0.517829 0.36639,0.12326 0.7044,0.20953 1.01513,0.25825 0.31864,0.0459 0.62315,0.0541 0.91432,0.0242 0.29117,-0.0299 0.58355,-0.0941 0.87785,-0.1925 0.31818,-0.1064 0.61051,-0.23757 0.87753,-0.394063 0.26707,-0.156525 0.55253,-0.352602 0.85783,-0.588078 0.21445,0.286879 0.42809,0.574173 0.64095,0.861881 -0.8701,0.77582 -1.64357,1.404 -2.3388,1.88431 -0.69198,0.48771 -1.2886,0.8247 -1.80148,1.00833 -0.25617,0.0917 -0.51139,0.14901 -0.76631,0.17182 -0.2521,0.0306 -0.5116,0.0295 -0.77904,-0.003 -0.26744,-0.0327 -0.54668,-0.0954 -0.83827,-0.18811 -0.29457,-0.10044 -0.61678,-0.22483 -0.96783,-0.37277 -0.57132,-0.23192 -1.26185,-0.57226 -2.08437,-1.01832 -0.54054,-0.2971 -1.14236,-0.64785 -1.8126,-1.05232 -0.35362,-0.21487 -0.7252,-0.44391 -1.11629,-0.687345 -1.137303,-0.721927 -2.415028,-1.560081 -3.909104,-2.540203 -1.484025,-0.973522 -3.175492,-2.096131 -5.095329,-3.34882 -0.01441,-0.05251 -0.02882,-0.105028 -0.04321,-0.157548 1.455705,-0.745155 2.632426,-1.487713 3.53476,-2.255979 0.900678,-0.766858 1.566496,-1.552683 1.992697,-2.369452 0,0 0,0 0,0 0,0 8.56e-4,-0.0016 8.56e-4,-0.0016 0.43496,-0.820037 0.656021,-1.667636 0.656083,-2.547109 -0.003,-0.886699 -0.185606,-1.804888 -0.555999,-2.751105 -0.71088,-1.816039 -1.809312,-2.957715 -3.322925,-3.39155 -0.118246,-0.03389 -0.238863,-0.06356 -0.361843,-0.08898 -1.448353,-0.291803 -3.230563,0.01067 -5.289532,0.942101 -0.477761,0.216127 -0.924592,0.439312 -1.340211,0.668585 -0.415405,0.229154 -0.870743,0.492926 -1.363332,0.791544 0.256147,0.586961 0.590226,1.360084 1.013451,2.342991 0.431478,0.977035 0.920539,2.096292 1.474475,3.371646 0.55914,1.263821 1.165846,2.646904 1.827821,4.163525 0.65735,1.50669 1.350253,3.083312 2.07896,4.729746 0.24509,0.553943 1.994163,4.510928 2.239253,5.064868 0.764347,1.73005 1.529263,3.45525 2.294727,5.17559 -0.828726,0.53523 -1.650238,1.08018 -2.46452,1.63455 -0.06988,0.0264 -0.139747,0.0528 -0.2096,0.0794 -0.258095,-0.55881 -2.563234,-5.5622 -2.821329,-6.12101 -0.887914,-1.9291 -1.760195,-3.798251 -2.621538,-5.611154 -0.856743,-1.823846 -1.711545,-3.619839 -2.566848,-5.388851 -0.858711,-1.775659 -1.754102,-3.585193 -2.686985,-5.425014 -1e-5,-3e-6 -2e-5,-5e-6 -3e-5,-8e-6 z"
         id="path1802"
         inkscape:original-d="m 101.33812,83.937186 q 0,-0.520898 -0.0868,-0.892969 -0.0868,-0.37207 -0.31006,-0.607715 -0.21084,-0.235644 -0.59532,-0.347265 -0.384468,-0.111621 -0.979781,-0.111621 -0.818555,0 -2.095996,0.186035 l -0.148828,-1.103809 q 1.153418,-0.21084 2.517676,-0.434082 1.376659,-0.223242 2.815329,-0.409277 1.45108,-0.186035 2.90215,-0.297656 1.46348,-0.124024 2.80293,-0.124024 1.79834,0 3.33623,0.322461 1.53789,0.310059 2.6665,1.054199 1.12862,0.731739 1.77354,1.934766 0.64492,1.203027 0.64492,2.988965 0,1.649512 -0.5457,3.026172 -0.5333,1.364257 -1.52549,2.443261 -0.97978,1.079004 -2.38125,1.84795 -1.40146,0.768945 -3.12539,1.215429 1.28984,2.207617 2.34404,3.881934 1.0542,1.67432 1.93477,2.93936 0.88056,1.25263 1.6123,2.158 0.73174,0.89297 1.37666,1.5503 0.5085,0.5333 0.95498,0.90537 0.44649,0.35966 0.85577,0.58291 0.42168,0.22324 0.84335,0.32246 0.42168,0.0992 0.88057,0.0992 0.4961,0 0.94258,-0.0992 0.44648,-0.0992 0.97978,-0.29766 l 0.34727,1.01699 q -1.5751,0.71934 -2.79053,1.06661 -1.21543,0.35966 -2.03398,0.35966 -0.40928,0 -0.78135,-0.0992 -0.37207,-0.0868 -0.73174,-0.27285 -0.35967,-0.18603 -0.71933,-0.47129 -0.35967,-0.29765 -0.76895,-0.69453 -0.66973,-0.63252 -1.55029,-1.71152 -0.88057,-1.09141 -1.99678,-2.71611 -1.10381,-1.63711 -2.45566,-3.869535 -1.35186,-2.232422 -2.97657,-5.159375 l 0.0248,-0.16123 q 2.19521,-0.08682 3.7083,-0.607715 1.51309,-0.520899 2.44326,-1.413867 0.94258,-0.892969 1.36426,-2.120801 0.42168,-1.240234 0.42168,-2.765723 0,-2.926953 -1.53789,-4.378027 -1.53789,-1.451074 -4.55166,-1.451074 -0.64492,0 -1.22783,0.04961 -0.58291,0.04961 -1.28985,0.136426 -0.0248,0.95498 -0.0744,2.554883 -0.0372,1.599902 -0.0992,3.683496 -0.0496,2.071191 -0.12402,4.55166 -0.0744,2.468066 -0.14883,5.171777 -0.0744,2.691305 -0.16123,5.543845 -0.0868,2.84014 -0.17363,5.66787 l -2.93936,0.37207 -0.22324,-0.0248 q 0.14883,-3.55947 0.27285,-6.74688 0.12402,-3.187398 0.19844,-6.201167 0.0868,-3.026172 0.13642,-5.97793 0.0496,-2.96416 0.0496,-6.064746 z" />
      <path
         d="m 145.61636,94.070163 c -0.59235,0.305342 -1.13601,0.576379 -1.63506,0.812976 -0.49106,0.227442 -0.94889,0.420852 -1.37536,0.579729 -0.42557,0.167094 -0.82349,0.299899 -1.19507,0.39796 -0.37155,0.09804 -0.73291,0.167219 -1.08482,0.207368 -0.47754,0.05448 -0.90656,0.01402 -1.28927,-0.122526 -0.38157,-0.128301 -0.72002,-0.377368 -1.01631,-0.747878 -0.28776,-0.371438 -0.53535,-0.877234 -0.74187,-1.517067 -0.20641,-0.639503 -0.37624,-1.44368 -0.50663,-2.410141 l -0.14592,-1.081681 c -0.0685,-0.508063 -0.14759,-1.093974 -0.23714,-1.75773 -0.001,-0.0087 -0.25915,-2.121349 -0.26021,-2.130052 -0.007,-0.05605 -0.2758,-2.246203 -0.28268,-2.302255 -0.0868,-0.780939 -0.16938,-1.533234 -0.24792,-2.256878 -0.0796,-0.731839 -0.15245,-1.414542 -0.21847,-2.048098 -0.066,-0.633556 -0.1192,-1.17289 -0.15965,-1.617987 -0.0814,-0.965226 -0.15685,-1.927037 -0.22604,-2.885549 -0.0608,-0.968027 -0.0988,-1.918018 -0.11314,-2.850444 -0.0402,-0.0072 -0.0804,-0.01438 -0.12059,-0.02154 -0.11553,0.391274 -0.2563,0.838796 -0.422,1.345898 -0.16737,0.500531 -0.3797,1.101566 -0.63807,1.816395 -0.61101,1.705753 -1.20968,3.474816 -1.79054,5.304747 -0.57169,1.828595 -1.12499,3.698538 -1.65579,5.607878 -0.52335,1.899772 -1.02192,3.831102 -1.49252,5.792438 -0.47216,1.953384 -0.90911,3.906342 -1.31077,5.858244 -0.20221,0.0326 -0.40432,0.06564 -0.60632,0.0991 -0.28589,-0.51246 -0.63316,-1.117879 -1.0395,-1.80642 -0.40856,-0.697436 -0.85883,-1.446425 -1.35074,-2.242264 -0.49379,-0.804067 -1.02436,-1.64697 -1.59206,-2.525059 -0.56123,-0.888453 -1.1394,-1.780335 -1.73499,-2.674878 -0.5975,-0.902625 -1.20542,-1.797035 -1.82392,-2.68297 -0.6096,-0.888015 -1.2087,-1.739047 -1.79579,-2.553103 -0.57801,-0.816228 -1.13484,-1.577417 -1.66804,-2.283291 -0.52543,-0.715285 -1.0034,-1.351894 -1.42626,-1.904535 -0.32534,-0.431656 -0.97091,-1.284713 -1.29625,-1.716369 -0.36726,-0.501519 -0.68712,-0.939877 -0.96676,-1.327658 -0.0298,0.02099 -0.0596,0.04199 -0.0894,0.063 0.0654,0.238722 0.13087,0.477443 0.1963,0.716164 0.0727,0.228206 0.14601,0.477542 0.22015,0.748121 l 0.53963,1.969498 c 0.34672,1.265448 0.67782,2.564494 0.9954,3.89783 0.31534,1.325082 0.61408,2.637954 0.89711,3.937754 0.28084,1.291705 0.5396,2.547518 0.77683,3.765823 0.23724,1.218304 0.44743,2.346495 0.63002,3.383249 0.15039,0.857773 0.27189,1.590156 0.3639,2.198812 0.0979,0.598043 0.15873,1.108375 0.18234,1.530368 0.0317,0.419748 0.0204,0.761931 -0.0341,1.026346 -0.0568,0.25654 -0.15969,0.47072 -0.30876,0.64282 -0.14111,0.16983 -0.33807,0.30897 -0.59109,0.41827 -0.2452,0.107 -0.54586,0.21399 -0.90263,0.32248 -0.11887,0.0361 -0.23768,0.0725 -0.35643,0.10896 -0.0713,0.0219 -0.15948,0.0448 -0.26477,0.0687 -0.1029,0.0319 -0.23049,0.0672 -0.38314,0.10634 -0.0676,-0.0221 -0.13525,-0.0441 -0.20293,-0.066 0.13197,-0.88034 0.20094,-1.834833 0.20572,-2.862747 0.0105,-1.038279 -0.0294,-2.121096 -0.12155,-3.247217 -0.0839,-1.12865 -0.20586,-2.284533 -0.36793,-3.466447 -0.16442,-1.190067 -0.3531,-2.368157 -0.56846,-3.534269 -0.20663,-1.168712 -0.43181,-2.314274 -0.6777,-3.437065 -0.23699,-1.12562 -0.47828,-2.188605 -0.72606,-3.190864 -0.24781,-1.002293 -0.48668,-1.924245 -0.71815,-2.768136 -0.22217,-0.846594 -0.42233,-1.582159 -0.60172,-2.209284 -0.11574,-0.404645 -0.24409,-0.728182 -0.38576,-0.970902 -0.14163,-0.24265 -0.32001,-0.414603 -0.53545,-0.515518 -0.20811,-0.111573 -0.46869,-0.151958 -0.78124,-0.120294 -0.30514,0.02093 -0.6877,0.0997 -1.14579,0.237896 -0.31491,0.095 -0.67173,0.225213 -1.06907,0.391278 -0.39971,0.158163 -0.83728,0.347115 -1.31088,0.567425 -0.16282,-0.329176 -0.32599,-0.658214 -0.48953,-0.987111 1.63747,-0.886443 3.02908,-1.570936 4.11726,-2.057108 1.09111,-0.496421 1.98486,-0.833244 2.6634,-1.017534 0.34982,-0.09501 0.65894,-0.147844 0.92652,-0.159176 0.26552,-0.01931 0.50744,0.01095 0.72536,0.09045 0.22556,0.06898 0.43786,0.188685 0.63673,0.358947 0.19681,0.162274 0.40161,0.378062 0.6141,0.647455 0.81243,1.052422 1.66354,2.180419 2.54688,3.382617 0.88372,1.202712 1.77023,2.437764 2.65803,3.705539 0.89703,1.265625 1.77573,2.543307 2.63639,3.832491 0.8676,1.278741 1.69011,2.530018 2.46888,3.749711 0.30318,0.484047 0.57872,0.930029 0.82522,1.333791 0.25384,0.394379 0.48334,0.765013 0.68863,1.110819 0.21235,0.336055 0.40838,0.663115 0.58829,0.980796 0.1869,0.307902 0.36445,0.617846 0.5328,0.929715 0.0299,-0.0059 0.0597,-0.01178 0.0896,-0.01766 0.0677,-0.375213 0.14221,-0.743164 0.22367,-1.103858 0.0799,-0.368774 0.16783,-0.747396 0.26412,-1.135688 0.0947,-0.396223 0.1991,-0.819867 0.31353,-1.26966 0.12397,-0.454321 0.25938,-0.9574 0.41193,-1.525292 0.3795,-1.41269 0.78869,-2.878686 1.23042,-4.395548 0.45089,-1.518655 0.92865,-3.071546 1.43524,-4.657667 0.51594,-1.587673 1.05833,-3.195817 1.62837,-4.823847 0.57005,-1.628054 1.16529,-3.258916 1.78592,-4.892135 0.0675,-0.175713 0.16855,-0.326594 0.30327,-0.452499 0.14461,-0.127183 0.30256,-0.230874 0.47369,-0.31097 0.18001,-0.08956 0.36777,-0.158972 0.56311,-0.20816 0.19533,-0.04919 0.3774,-0.08391 0.54605,-0.104284 0.2877,-0.03475 0.60422,-0.03897 0.94896,-0.01221 0.35374,0.0174 0.6956,0.06631 1.02519,0.146538 -0.002,1.364916 0.008,2.671493 0.0277,3.917571 0.0299,1.245196 0.0729,2.456179 0.12786,3.632014 0.055,1.175948 0.11967,2.338498 0.19331,3.487378 0.0727,1.140769 0.16192,2.291981 0.26679,3.454062 0.10489,1.162129 0.21769,2.348001 0.33821,3.558293 0.12949,1.209451 0.26968,2.470928 0.42047,3.786181 0.0998,0.870804 0.22451,1.610845 0.37234,2.218192 0.14788,0.607556 0.3384,1.098459 0.5705,1.472288 0.23982,0.364801 0.53101,0.620388 0.87394,0.767418 0.34307,0.147082 0.7563,0.196184 1.24179,0.148949 0.17888,-0.0174 0.34886,-0.0378 0.51003,-0.06129 0.16969,-0.02429 0.34291,-0.05695 0.51978,-0.09797 0.17613,-0.04926 0.36827,-0.112147 0.57675,-0.188542 0.21711,-0.07715 0.46269,-0.172895 0.73769,-0.287087 0.14836,0.328239 0.296,0.656681 0.44294,0.985322 z"
         id="path1804"
         inkscape:original-d="m 154.15971,107.66287 q -0.89297,0.38447 -1.64951,0.66973 -0.74415,0.27285 -1.38907,0.44648 -0.64492,0.18604 -1.20302,0.27285 -0.55811,0.0868 -1.07901,0.0868 -0.70693,0 -1.24023,-0.27285 -0.5333,-0.26045 -0.89297,-0.86817 -0.34727,-0.60771 -0.5209,-1.5999 -0.17363,-0.99219 -0.17363,-2.45566 v -1.09141 q 0,-0.76895 0,-1.77354 0.0124,-1.01699 0.0248,-2.145601 0.0124,-1.141015 0.0248,-2.319238 0.0248,-1.178222 0.0496,-2.269629 0.0248,-1.103808 0.0496,-2.058789 0.0248,-0.95498 0.0496,-1.624707 0.062,-1.451074 0.13643,-2.889746 0.0868,-1.451074 0.22324,-2.840136 l -0.0992,-0.03721 q -0.21084,0.558106 -0.50849,1.277442 -0.29766,0.706933 -0.75654,1.711523 -1.09141,2.406055 -2.23243,4.985742 -1.12861,2.579688 -2.29443,5.270996 -1.15342,2.678913 -2.33164,5.444633 -1.17822,2.75332 -2.34404,5.50664 l -0.60772,-0.0248 q -0.26045,-0.84336 -0.63252,-1.98437 -0.37207,-1.15342 -0.81855,-2.48047 -0.44649,-1.33945 -0.95498,-2.81533 -0.4961,-1.48828 -1.017,-3.001371 -0.52089,-1.525488 -1.05419,-3.038574 -0.5209,-1.513086 -1.017,-2.914551 -0.48369,-1.401464 -0.93017,-2.629296 -0.43408,-1.240235 -0.78135,-2.207618 -0.39688,-1.128613 -0.69453,-1.996777 -0.28526,-0.868164 -0.4961,-1.537891 l -0.0868,0.03721 q 0,0.372071 0,0.744141 0.0124,0.359668 0.0124,0.781348 v 2.046386 q 0,1.971973 -0.062,4.030762 -0.062,2.046387 -0.16123,4.043164 -0.0992,1.984375 -0.23565,3.844727 -0.13642,1.86035 -0.28525,3.43545 -0.12402,1.30224 -0.23564,2.22002 -0.0992,0.90537 -0.23565,1.52549 -0.12402,0.62011 -0.31006,0.97978 -0.18603,0.34727 -0.47129,0.5333 -0.27285,0.18604 -0.68213,0.23565 -0.39687,0.0496 -0.95498,0.0496 h -0.37207 q -0.11162,0 -0.27285,-0.0124 -0.16123,0 -0.39687,-0.0124 l -0.17364,-0.12402 q 0.58291,-1.20303 1.0294,-2.67891 0.45889,-1.48828 0.79375,-3.15019 0.34726,-1.66192 0.59531,-3.435452 0.24805,-1.785938 0.40928,-3.559473 0.17363,-1.773535 0.27285,-3.497461 0.11162,-1.723926 0.16123,-3.274219 0.0496,-1.550293 0.062,-2.864941 0.0248,-1.314648 0.0248,-2.294434 0,-0.632519 -0.0868,-1.041796 -0.0868,-0.409278 -0.31006,-0.644922 -0.21084,-0.248047 -0.59531,-0.334864 -0.37207,-0.09922 -0.96738,-0.09922 -0.40928,0 -0.94258,0.06201 -0.5333,0.04961 -1.17822,0.148829 l -0.13643,-1.091407 q 2.26963,-0.520898 3.73311,-0.768945 1.46347,-0.260449 2.33164,-0.260449 0.44648,0 0.76894,0.08682 0.32246,0.07441 0.55811,0.272852 0.24804,0.186035 0.43408,0.508496 0.18603,0.310058 0.35967,0.781348 0.65732,1.835546 1.38906,3.906738 0.73174,2.071191 1.48828,4.229199 0.76895,2.158008 1.52549,4.328418 0.76894,2.158008 1.47588,4.191992 0.27285,0.806152 0.49609,1.475879 0.23565,0.657322 0.42168,1.227832 0.19844,0.5581 0.35967,1.079 0.17363,0.5085 0.32246,1.01699 h 0.0868 q 0.19843,-0.5333 0.40927,-1.04179 0.21084,-0.5209 0.44649,-1.0666 0.23564,-0.55811 0.50849,-1.190628 0.28526,-0.632519 0.63252,-1.426269 0.86817,-1.984375 1.79834,-4.117578 0.94258,-2.133203 1.92237,-4.365625 0.99218,-2.232422 2.00918,-4.526855 1.01699,-2.294434 2.04638,-4.60127 0.11162,-0.248047 0.29766,-0.409277 0.19844,-0.161231 0.42168,-0.248047 0.23564,-0.09922 0.48369,-0.136426 0.24805,-0.03721 0.45889,-0.03721 0.35967,0 0.78135,0.09922 0.43408,0.08682 0.83095,0.260449 -0.18603,2.033984 -0.33486,3.894336 -0.13643,1.860351 -0.23565,3.621484 -0.0992,1.761133 -0.17363,3.485059 -0.0744,1.711523 -0.11162,3.460254 -0.0372,1.74873 -0.062,3.571875 -0.0124,1.823148 -0.0124,3.807518 0,1.31465 0.11162,2.24483 0.11162,0.93017 0.38447,1.52548 0.28525,0.58291 0.75654,0.85577 0.47129,0.27285 1.17823,0.27285 0.26044,0 0.49609,-0.0124 0.24805,-0.0124 0.5085,-0.0496 0.26044,-0.0496 0.5705,-0.13643 0.32246,-0.0868 0.73174,-0.22324 z" />
      <path
         d="m 146.89685,76.19432 c -0.24582,-3.452154 -0.49244,-6.904242 -0.73984,-10.356263 -0.009,-0.132168 0.0381,-0.251589 0.14132,-0.358148 0.10319,-0.10655 0.23288,-0.194059 0.38903,-0.262362 0.16561,-0.07722 0.34746,-0.138685 0.54543,-0.184255 0.20796,-0.0462 0.41205,-0.07522 0.61211,-0.0871 0.29006,-0.01722 0.59159,-0.0096 0.90423,0.02306 0.31218,0.02438 0.63595,0.08205 0.9708,0.173175 -0.36132,1.817221 -0.65624,3.620255 -0.88927,5.407989 -0.22335,1.787486 -0.38712,3.608991 -0.49503,5.46545 -0.40412,0.05725 -0.80795,0.115824 -1.21149,0.175717 -0.0758,8.66e-4 -0.15152,0.0018 -0.22729,0.0027 z"
         id="path1806"
         inkscape:original-d="m 156.55335,89.952323 -0.0372,-10.36836 q 0,-0.198437 0.13643,-0.347265 0.13643,-0.148828 0.33486,-0.235645 0.21084,-0.09922 0.45889,-0.148828 0.26045,-0.04961 0.5085,-0.04961 0.35966,0 0.74414,0.07441 0.38447,0.06201 0.79375,0.223242 -0.55811,2.691309 -0.97979,5.34541 -0.40928,2.654102 -0.69453,5.419824 l -1.0666,0.09922 z" />
      <path
         d="m 155.40757,87.173182 c -0.022,0.199343 -0.0352,0.390222 -0.0398,0.572585 -0.005,0.182371 -0.005,0.36464 -2.8e-4,0.546807 0.0225,0.943583 0.17405,1.744204 0.4499,2.400574 0.28453,0.648225 0.67258,1.174879 1.16314,1.581312 0.49937,0.406444 1.08877,0.701555 1.77012,0.887926 0.69008,0.178094 1.45927,0.268303 2.31132,0.273677 0.852,0.0054 1.6621,-0.09556 2.43451,-0.304398 0.77247,-0.217075 1.45563,-0.54306 2.05129,-0.980794 0.60419,-0.437369 1.09508,-0.983264 1.47133,-1.639929 0.37646,-0.66471 0.58619,-1.438972 0.62317,-2.323335 0.0235,-0.562185 -0.0393,-1.078019 -0.19025,-1.547754 -0.14167,-0.477581 -0.35319,-0.916325 -0.63557,-1.315737 -0.27304,-0.407314 -0.60757,-0.783193 -1.00409,-1.126715 -0.38745,-0.34322 -0.81837,-0.665989 -1.29289,-0.967401 -0.46523,-0.309462 -0.9604,-0.601473 -1.48543,-0.875312 -0.52488,-0.28211 -1.06125,-0.562345 -1.60908,-0.840348 -0.57532,-0.286544 -1.15305,-0.578822 -1.73355,-0.876829 -0.57128,-0.297995 -1.1222,-0.614203 -1.65294,-0.949136 -0.53074,-0.334929 -1.02748,-0.692865 -1.49015,-1.074589 -0.46278,-0.389983 -0.86864,-0.820778 -1.21702,-1.293381 -0.33896,-0.472766 -0.61603,-0.995994 -0.83003,-1.570191 -0.20451,-0.574356 -0.31805,-1.21346 -0.33791,-1.917074 -0.0248,-0.877701 0.0812,-1.696662 0.32246,-2.457155 0.24103,-0.768641 0.58832,-1.473136 1.04417,-2.112271 0.4654,-0.647531 1.02468,-1.224813 1.67835,-1.729692 0.66347,-0.504959 1.39172,-0.928581 2.18325,-1.268941 0.80138,-0.348635 1.65612,-0.605516 2.56142,-0.768805 0.91531,-0.171451 1.85125,-0.245338 2.80425,-0.221028 0.43676,0.01114 0.90263,0.04926 1.39687,0.114928 0.49452,0.0574 0.98777,0.141385 1.47924,0.25192 0.49146,0.110532 0.95657,0.242495 1.39502,0.395322 0.44867,0.145013 0.84124,0.309624 1.17759,0.492768 0.33637,0.183157 0.60216,0.380053 0.79766,0.589757 0.19554,0.209741 0.28674,0.426297 0.27453,0.649205 -0.0131,0.239536 -0.0345,0.540484 -0.0641,0.903323 -0.0292,0.354632 -0.0661,0.762278 -0.11066,1.223721 -0.0344,0.453705 -0.081,0.951988 -0.13939,1.495469 -0.058,0.535251 -0.12229,1.102915 -0.19288,1.703764 -0.48083,-0.04726 -0.96203,-0.09285 -1.44356,-0.136739 0.0426,-0.296107 0.0704,-0.580456 0.0832,-0.85315 0.0385,-0.818161 -0.0717,-1.543878 -0.33473,-2.177525 -0.25289,-0.641262 -0.63443,-1.180416 -1.14603,-1.615593 -0.50135,-0.442923 -1.12287,-0.781436 -1.8635,-1.01214 -0.73043,-0.238625 -1.55066,-0.368633 -2.45726,-0.386658 -0.90667,-0.01803 -1.75699,0.09949 -2.5464,0.350455 -0.77959,0.24278 -1.45373,0.594292 -2.02079,1.051394 -0.56719,0.448911 -1.0076,0.986605 -1.32254,1.610842 -0.31501,0.624379 -0.46561,1.309523 -0.45644,2.054922 0.007,0.604488 0.10568,1.154209 0.29255,1.649057 0.18681,0.486648 0.43873,0.935607 0.75469,1.347471 0.32548,0.411828 0.70554,0.786789 1.13978,1.125786 0.43427,0.339019 0.90392,0.662826 1.40879,0.972217 0.50492,0.301113 1.03566,0.591867 1.59221,0.872922 0.55655,0.281061 1.1153,0.564468 1.6763,0.85034 0.57958,0.28628 1.15177,0.58321 1.71645,0.8906 0.57391,0.307674 1.11675,0.637572 1.62839,0.988898 0.51197,0.343068 0.97851,0.719433 1.39965,1.128139 0.43069,0.400871 0.79249,0.845464 1.08594,1.332688 0.30301,0.479485 0.52825,1.005166 0.67704,1.576545 0.15784,0.571978 0.21575,1.20033 0.17625,1.885568 -0.0652,1.130563 -0.29253,2.124579 -0.6748,2.981725 -0.37361,0.857903 -0.85115,1.599869 -1.43026,2.227357 -0.57883,0.619359 -1.23003,1.13862 -1.95396,1.559726 -0.71541,0.421466 -1.45266,0.759108 -2.21406,1.013694 -0.76143,0.254607 -1.51725,0.435172 -2.27033,0.541598 -0.75328,0.114722 -1.44815,0.172504 -2.08759,0.171525 -0.84398,-0.0013 -1.63609,-0.05477 -2.37899,-0.162352 -0.74286,-0.09931 -1.39721,-0.232378 -1.96474,-0.402197 -0.55892,-0.169981 -1.00438,-0.364729 -1.3366,-0.587065 -0.32378,-0.230781 -0.49061,-0.469605 -0.49863,-0.718035 -0.0179,-0.553578 -0.0264,-1.350905 -0.0247,-2.385717 0.0104,-1.034465 0.0372,-2.269184 0.0821,-3.694132 0.44972,0.0069 0.8994,0.01542 1.34903,0.02559 z"
         id="path1808"
         inkscape:original-d="m 163.77151,101.28806 q -0.0372,0.29766 -0.0496,0.57051 -0.0124,0.27285 -0.0124,0.54571 0,1.41386 0.37207,2.40605 0.38448,0.97979 1.07901,1.5999 0.70693,0.62012 1.68672,0.90537 0.99218,0.27286 2.22002,0.27286 1.22783,0 2.33164,-0.33487 1.1038,-0.34726 1.93476,-1.02939 0.84336,-0.68213 1.33945,-1.68672 0.4961,-1.01699 0.4961,-2.34404 0,-0.84336 -0.23565,-1.53789 -0.22324,-0.706938 -0.63252,-1.289849 -0.39687,-0.595312 -0.95498,-1.091406 -0.5457,-0.496094 -1.20302,-0.930176 -0.64493,-0.446484 -1.36426,-0.843359 -0.71934,-0.409277 -1.46348,-0.818555 -0.78135,-0.421679 -1.56269,-0.868164 -0.76895,-0.446484 -1.47588,-0.95498 -0.70694,-0.508496 -1.31465,-1.091406 -0.60771,-0.595313 -1.0542,-1.314649 -0.43408,-0.719336 -0.69453,-1.5875 -0.24805,-0.868164 -0.24805,-1.922363 0,-1.314648 0.33487,-2.443262 0.33486,-1.141015 0.93017,-2.083593 0.60772,-0.954981 1.43867,-1.699121 0.84336,-0.744141 1.83555,-1.252637 1.00459,-0.520899 2.1332,-0.781348 1.14102,-0.272851 2.33164,-0.272851 0.54571,0 1.16582,0.07441 0.62012,0.06201 1.24024,0.198437 0.62012,0.136426 1.17822,0.334863 0.57051,0.186036 1.00459,0.434082 0.43408,0.248047 0.69453,0.545704 0.26045,0.297656 0.26045,0.632519 0,0.359668 -0.0124,0.905371 -0.0124,0.533301 -0.0372,1.227832 -0.0124,0.682129 -0.0496,1.500684 -0.0372,0.806152 -0.0868,1.711523 l -1.25264,-0.06201 q 0.0372,-0.446484 0.0372,-0.855761 0,-1.227832 -0.37207,-2.158008 -0.35967,-0.942578 -1.0294,-1.562695 -0.65732,-0.63252 -1.5999,-0.942578 -0.93018,-0.322461 -2.07119,-0.322461 -1.14102,0 -2.1332,0.384472 -0.97979,0.372071 -1.69913,1.0542 -0.71933,0.669726 -1.12861,1.599902 -0.40928,0.930176 -0.40928,2.046387 0,0.905371 0.23565,1.649511 0.23564,0.731739 0.64492,1.351856 0.42168,0.620117 0.99219,1.128613 0.57051,0.508496 1.24023,0.967383 0.66973,0.446484 1.41387,0.855761 0.74414,0.409278 1.50068,0.818555 0.78135,0.409277 1.5503,0.843359 0.78134,0.434083 1.48828,0.930176 0.70693,0.483692 1.30224,1.066602 0.60772,0.570508 1.0418,1.277441 0.44648,0.694531 0.69453,1.537891 0.26045,0.843359 0.26045,1.872758 0,1.69912 -0.47129,3.01377 -0.45889,1.31465 -1.24023,2.29443 -0.78135,0.96738 -1.79834,1.63711 -1.00459,0.66973 -2.096,1.079 -1.09141,0.40928 -2.18281,0.58291 -1.09141,0.18604 -2.02158,0.18604 -1.22784,0 -2.30684,-0.17363 -1.079,-0.16123 -1.89756,-0.43409 -0.80615,-0.27285 -1.27744,-0.62011 -0.45889,-0.35967 -0.45889,-0.73174 0,-0.83096 0.0496,-2.38125 0.062,-1.55029 0.18604,-3.6835 z" />
    </g>
    <g
       id="g694"
       transform="matrix(0.34273258,0,0,0.34273258,23.757404,69.143315)">
      <path
         class="st7"
         d="m 513.2,460.2 c 1.9,0.6 3.5,1.2 4.9,2.7 0.7,0.7 1.3,1.6 1.8,2.5 0.1,-1.6 -0.2,-3.2 -1,-4.8 -1.8,-3.8 -5.7,-5.8 -9.4,-7.5 -5,-2.3 -10.7,-4.3 -13.1,-9.3 -0.5,0.9 -1,1.8 -1.5,2.7 -2.7,4.5 -4.6,9.3 -6.9,14.1 0,0.1 -0.2,0 -0.1,-0.1 1.7,-4.2 4,-8.3 5.4,-12.7 1.1,-3.5 1.9,-7.1 3.4,-10.6 3.2,-7.8 6.4,-15.8 8,-24.1 2.6,-13.7 -3.8,-25.9 -9.3,-38.1 -0.1,7.4 -1.6,14.8 -4.7,21.7 -0.2,0.5 -0.9,0.1 -0.8,-0.4 2.2,-12.2 3,-23.7 -0.2,-35.8 -3.1,-11.7 -9.1,-21.4 -16.8,-30.7 -7.5,-9.1 -15,-18.3 -22,-27.9 -4.9,-6.8 -10,-13.7 -14.3,-21 3.1,8.7 7.2,17.5 5.4,26.3 -0.1,0.7 -1.4,0.8 -1.5,0 -0.8,-6.2 -1.9,-11.9 -4.1,-17.8 -2.3,-6 -4.9,-12 -6.6,-18.2 -3.1,-11.5 -0.3,-23.8 -4,-35.1 -2.6,0 -5.2,-0.3 -7.7,-0.9 -1.4,-0.3 -1,-2.3 0.3,-2.3 14.8,-0.5 28.8,-4.8 38.5,-16.6 4.9,-6 8.2,-13.2 11.3,-20.3 3.3,-7.7 7.4,-16.2 6.8,-24.8 -0.5,-7.5 -9.4,-2.5 -13.3,-1.2 -1.9,0.6 -3.7,1.2 -5.6,1.7 -2.4,1.3 -4.7,2.6 -7,4.2 -6.1,4.3 -11.8,9 -17.9,13.2 -10.4,7.2 -24.6,14.7 -37.7,12.6 -0.3,0 -0.3,-0.5 0,-0.5 7.9,-1.2 14.8,-2.9 21.7,-7.1 6.1,-3.8 11.9,-7.8 17.7,-12 3.5,-2.6 7.1,-4.9 10.8,-7.1 -5.6,1.3 -11.3,2.4 -17,3.3 -7.2,1.1 -14.4,1.8 -21.6,3 -7.5,1.2 -14,4.1 -20.7,7.7 -0.4,0.2 -0.8,-0.3 -0.5,-0.6 2.1,-2.3 4.6,-4.2 7.3,-5.8 -2.5,-0.5 -4.9,-1.4 -7.3,-2 -4.2,-1.1 -8.6,-1.8 -12.9,-2.2 -8.1,-0.8 -16.3,-0.7 -24.4,-0.5 -8.8,0.2 -18.4,-0.2 -26.3,4.2 -6.1,3.4 -10.3,8.9 -15.2,13.6 0,0.1 0,0.3 0,0.4 0,0 0,0.1 0,0.1 1.9,0.5 3.7,0.8 5.5,1 0,-0.1 -0.1,-0.2 0,-0.4 0.5,-3 1.6,-6.2 5,-7 1.5,-0.4 3.2,0.5 4,1.8 0.4,0.6 0.7,1.5 0.5,2.3 -0.1,0.2 -0.3,0.7 -0.3,0.8 -0.1,0.4 -0.1,0.5 -0.4,0.9 -0.4,0.6 -1.2,0.6 -1.6,0 -0.2,-0.3 -0.2,-0.6 -0.3,-0.9 -0.7,-0.7 -1,-1.8 -2.3,-1.8 -1.7,0.1 -2.7,3 -3.1,4.3 0,0.1 -0.1,0.1 -0.1,0.1 2.7,0.3 5.5,0.4 8.4,0.3 0.2,0 0.3,0.3 0.1,0.3 -9.3,4.2 -19.2,0.4 -28.9,-2.3 2,1.7 3.8,3.9 5.2,6.4 1.7,3.1 1.9,4.8 0.2,7.9 -2.3,4.2 -5.4,8.2 -8.9,11.4 -2.3,2 -5,4 -8.1,4.2 0,0.5 0,0.9 0,1.1 0.2,1.2 0.6,2.5 1,3.7 0.4,1.3 1.2,2.4 1.9,3.7 6.9,0.4 13.1,4.4 17.9,9.2 3.9,3.9 7.5,3.9 12.5,4.1 5,0.2 9.9,1.5 14.8,-0.1 8.7,-2.9 25.9,-29 35.7,-15.1 0.9,1.2 -0.1,2.7 -1.3,3.1 -8,3.2 -15.8,6.1 -24.1,8.6 0,0 0,0 -0.1,0 -0.7,0.6 -1.4,1.2 -1.9,1.5 -5.5,4.2 -10.6,4.6 -17.3,5.1 -4.7,0.3 -11.2,1.5 -16,-0.5 -2.4,1.2 -5.1,0.8 -7.8,1.2 -3,0.5 -5.9,1.2 -8.9,1.7 1,0.9 2,1.9 2.9,2.9 0.4,0.3 0.8,0.5 1.2,0.8 0.4,0.3 0.6,0.7 0.5,1.1 0.3,0.3 0.6,0.6 0.9,0.9 2.6,2.6 5.4,5 8.2,7.4 5.6,4.7 11.5,9.2 17,14.1 9.9,8.7 17.6,19.6 20.9,32.5 0.2,0.6 -0.7,0.8 -0.9,0.2 -2.4,-6.9 -6.6,-12.9 -11.5,-18.2 0.5,1.3 1,2.5 1.5,3.7 1.8,4.3 3.4,8.7 4.7,13.2 2.1,7.7 3.3,16.2 0.3,23.8 -2.7,6.9 -8.5,11.8 -14.9,15.3 -3.4,1.9 -7,3.3 -10.6,4.8 -1.6,18.5 5.6,35.7 13.3,52.2 3.5,7.6 7,15.2 10.2,23 3.4,8.4 7.5,17.2 8.7,26.2 1,7.7 -2.4,12.5 -5.5,19.1 -2.6,5.4 -1,8.5 2.2,10.3 -0.3,-3.8 1.2,-7.9 4,-10.5 0.3,-0.3 0.8,0.1 0.5,0.4 -1.1,1.7 -2.3,4.1 -2.2,6.2 0.1,1.7 1,3.8 1.8,5.4 2.6,0.6 5.5,0.9 8.1,1 -1,-2.8 -0.7,-6.3 1.1,-8.6 0.3,-0.4 0.9,-0.2 0.8,0.4 -0.6,3.2 -0.1,5.6 1.6,8.4 0,0 0,0 0,0.1 4.2,0.2 8.7,0.4 12.6,-1 5.3,-1.8 6.5,-6.6 7.7,-11.5 2.5,-9.4 4.4,-19.4 8.1,-28.5 0.1,-0.3 0.7,-0.3 0.7,0.1 -0.3,5.1 -1.2,10.3 -2.3,15.5 4,1.7 7.8,3.9 12,5.2 3.5,1 8,0.4 11.2,1.9 1.2,-2.6 2,-5.3 2.2,-8.2 1.2,-13.6 -9.9,-27.5 -3.1,-40.7 0.4,-0.7 1.5,-0.2 1.3,0.5 -5.5,16.4 10.5,30.7 5.1,47.4 -1.1,3.4 -3.1,6.1 -4.6,9.3 -1.7,3.5 -1,6.6 1.1,8.8 0,-0.7 0.1,-1.4 0.2,-2 0.5,-3 2,-5.8 4.6,-7.5 0.4,-0.3 0.9,0.3 0.7,0.7 -1.8,2.9 -3.9,8.2 -1,11.2 0.2,0.2 0.3,0.4 0.4,0.6 0,0 0.1,0 0.1,0 3.3,1 7.4,1.1 11.5,0.6 0,0 0,0 0,0 -1.4,-4.1 -0.3,-8.9 2.7,-12.1 0.7,-0.7 1.9,0.2 1.3,1 -2,3 -2.5,6.4 -1,9.7 0.1,0.3 0.2,0.6 0.2,0.9 3.4,-0.6 6.6,-1.5 9.2,-2.6 3.7,-1.5 7,-3.8 8.8,-7.4 1.9,-3.9 1.8,-8.5 2.6,-12.7 1.3,-6.8 5.6,-12.1 10.5,-16.8 5.5,-5.3 11.3,-10.1 16,-16.1 5.4,-6.8 9.2,-14.2 12.6,-22 0.2,-0.4 0.8,-0.1 0.7,0.3 -2.8,15.4 -15.3,28.2 -25.9,39.1 -2.8,2.9 -5.9,5.8 -7.7,9.4 -1.5,2.9 -2,5.9 -2.4,9.1 11,-0.6 22.8,-2.5 33.7,-1.1 9.7,1.3 19.9,8.7 29.9,5.7 0.5,-0.1 1,-0.3 1.4,-0.5 -0.1,-0.5 -0.1,-0.9 -0.3,-1.5 -0.2,-0.7 -0.6,-1.4 -1,-2.1 -1,-1.4 -2.4,-2.6 -3.9,-3.5 -0.4,-0.3 -0.1,-0.9 0.4,-0.7 1.7,0.8 3,1.9 4.3,3.2 0.9,1 2,1.9 2.8,3.1 2,-1.4 3.5,-3.4 4.4,-5.6 0,0 -0.1,-0.1 -0.1,-0.1 -0.9,-3.1 -3.4,-5.9 -6.3,-7.4 -0.1,0.1 0.2,-0.5 0.6,-0.4 z M 350.7,201.1 c -0.9,1.8 -2.1,5.8 -4.5,5.9 -0.2,0 -0.4,-0.2 -0.4,-0.4 -0.2,-1.6 1.5,-3 1.9,-4.5 0.4,-1.4 0.1,-3.9 -1.1,-4.9 -2.1,-1.5 -3.7,1.5 -4.6,3 -1,1.8 -1.7,3.6 -3.3,5 -0.1,0.1 -0.2,0 -0.2,-0.1 0,-2.9 2,-6.3 3.9,-8.4 1.6,-1.8 3.6,-3.7 6.2,-2.5 2.7,1.3 3.3,4.5 2.1,6.9 z m 59.9,71.6 c -0.8,3.9 -2.9,8 -6.6,9.7 -2.6,1.2 -5.5,1.5 -8.1,2.5 -3.1,1.1 -5.4,3 -8.2,4.6 -0.5,0.3 -0.9,-0.3 -0.5,-0.7 5.8,-6.4 18,-8.8 20.1,-17.7 1.2,-4.8 0.7,-10.4 0.2,-15.3 -0.6,-6.2 -2.9,-11.4 -4.5,-17.3 -0.2,-0.8 1,-1.1 1.2,-0.3 2.3,6.5 3.8,13.5 5.4,20.2 1.1,4.6 2,9.6 1,14.3 z m 3.8,-47.6 c -0.3,-3.2 0.9,-5.5 2.9,-7.2 -0.5,0.1 -0.9,0.1 -1.3,0.2 -3.1,0.5 -6,0.7 -9,-0.3 -0.3,-0.1 -0.4,-0.6 0,-0.7 3.4,-0.5 6.8,-0.5 10.1,-1.3 3.1,-0.7 5.3,-2.2 8.1,-3.6 2.9,-1.5 5.9,-2.4 9,-3.3 3.2,-0.9 5.7,-2.7 8.5,-4.1 3,-2.2 5.8,-4.7 8.4,-7.7 0.4,-0.5 1.3,0.2 0.9,0.7 -3.7,5.9 -9.4,10.5 -15,14.5 -6.9,4.8 -16,6 -21.2,13.1 -0.4,0.7 -1.3,0.5 -1.4,-0.3 z"
         id="path476"
         style="fill:#fef9d4" />
      <g
         id="g480">
        <path
           class="st7"
           d="m 422,404.3 c 7.1,-5.3 13.5,-11.7 17.4,-19.6 5,-10.2 5.4,-22.2 3.2,-33.4 -2.1,-11.2 -6.6,-21.8 -11.1,-32.2 -11.1,14.4 -30.2,22.8 -48.4,22.8 -2.8,0 -5.7,-0.2 -8.1,-1.7 -2.4,-1.5 -4.1,-4.4 -3.2,-7.1 0.5,-1.6 1.8,-2.8 2.8,-4.1 4.5,-6.1 2,-14.6 3.1,-22.1 1.1,-6.9 5.3,-12.9 10.6,-17.4 0.5,-0.5 1.1,-0.9 1.6,-1.3 -0.8,0.5 -1.5,1 -2.4,1.5 -0.5,0.3 -0.9,-0.3 -0.5,-0.7 5.8,-6.4 18,-8.8 20.1,-17.7 1.2,-4.8 0.7,-10.4 0.2,-15.3 -0.6,-6.2 -2.8,-11.3 -4.5,-17.3 -3.2,-6.7 -7.2,-13.1 -11.2,-19.5 -1.9,-3.1 -4.1,-6.3 -7.4,-7.6 -2.7,-1.1 -5.7,-0.7 -8.6,-0.4 -10,1 -20.1,1.1 -30.1,0.3 -5.1,-0.4 -10.5,-1.2 -14.3,-4.7 0.5,-3.8 1,-8.3 1.3,-12.1 0.1,-0.6 0.1,-1.3 -0.4,-1.8 -0.4,-0.4 -0.9,-0.4 -1.4,-0.4 -4.2,0.1 -7.7,3.2 -11.6,4.9 -0.5,0.2 -1,0.4 -1.5,0.5 0.8,0 1.6,0 2.4,0 0.2,0 0.3,0.3 0.1,0.3 -9.3,4.2 -19.2,0.4 -28.9,-2.3 2,1.7 3.8,3.9 5.2,6.4 1.7,3.1 1.9,4.8 0.2,7.9 -2.3,4.2 -5.4,8.2 -8.9,11.4 -2.3,2 -5,4 -8.1,4.2 0,0.5 0,0.9 0,1.1 0.2,1.2 0.6,2.5 1,3.7 0.4,1.3 1.2,2.4 1.9,3.7 6.9,0.4 13.1,4.4 17.9,9.2 3.9,3.9 7.5,3.9 12.5,4.1 5,0.2 9.9,1.5 14.8,-0.1 8.7,-2.9 25.9,-29 35.7,-15.1 0.9,1.2 -0.1,2.7 -1.3,3.1 -8,3.2 -15.8,6.1 -24.1,8.6 0,0 0,0 -0.1,0 -0.7,0.6 -1.4,1.2 -1.9,1.5 -5.5,4.2 -10.6,4.6 -17.3,5.1 -4.7,0.3 -11.2,1.5 -16,-0.5 -2.4,1.2 -5.1,0.8 -7.8,1.2 -3,0.5 -5.9,1.2 -8.9,1.7 1,0.9 2,1.9 2.9,2.9 0.4,0.3 0.8,0.5 1.2,0.8 0.4,0.3 0.6,0.7 0.5,1.1 0.3,0.3 0.6,0.6 0.9,0.9 2.6,2.6 5.4,5 8.2,7.4 5.6,4.7 11.5,9.2 17,14.1 9.9,8.7 17.6,19.6 20.9,32.5 0.2,0.6 -0.7,0.8 -0.9,0.2 -2.4,-6.9 -6.6,-12.9 -11.5,-18.2 0.5,1.3 1,2.5 1.5,3.7 1.8,4.3 3.4,8.7 4.7,13.2 2.1,7.7 3.3,16.2 0.3,23.8 -2.7,6.9 -8.5,11.8 -14.9,15.3 -0.3,0.2 -0.7,0.4 -1,0.5 2.6,18.4 6.8,36.9 18.2,51.3 11.8,14.9 30,23.4 43,37.3 1.1,1.2 2.2,2.5 2.6,4.1 0.3,1.3 0,2.6 -0.3,3.8 -0.1,0.6 -0.3,1.2 -0.4,1.8 0.2,-0.4 0.3,-0.9 0.5,-1.3 0.1,-0.3 0.7,-0.3 0.7,0.1 -0.3,5.1 -1.2,10.3 -2.3,15.5 4,1.7 7.8,3.9 12,5.2 3.5,1 8,0.4 11.2,1.9 1.2,-2.6 2,-5.3 2.2,-8.2 1.2,-13.6 -9.9,-27.5 -3.1,-40.7 0.3,-0.6 1.3,-0.3 1.3,0.4 0.8,-1.5 1.8,-2.9 2.8,-4.2 5.2,-5.8 11.8,-9.6 17.8,-14 z"
           id="path478"
           style="fill:#fef9d4" />
      </g>
      <g
         id="g496">
        <path
           class="st8"
           d="m 348.6,194.2 c -2.6,-1.2 -4.6,0.6 -6.2,2.5 -1.8,2.1 -3.8,5.6 -3.9,8.4 0,0.1 0.1,0.1 0.2,0.1 1.5,-1.4 2.2,-3.2 3.3,-5 0.9,-1.5 2.5,-4.6 4.6,-3 1.3,1 1.6,3.5 1.1,4.9 -0.5,1.5 -2.1,2.9 -1.9,4.5 0,0.2 0.2,0.4 0.4,0.4 2.4,-0.1 3.6,-4 4.5,-5.9 1.2,-2.4 0.6,-5.6 -2.1,-6.9 z"
           id="path482"
           style="fill:none" />
        <path
           class="st8"
           d="m 437.1,212.4 c 5.7,-3.9 11.3,-8.6 15,-14.5 0.3,-0.6 -0.5,-1.2 -0.9,-0.7 -2.6,3.1 -5.4,5.6 -8.4,7.7 -2.9,1.5 -5.3,3.3 -8.5,4.1 -3.1,0.9 -6.1,1.8 -9,3.3 -2.8,1.4 -5,2.9 -8.1,3.6 -3.4,0.7 -6.8,0.8 -10.1,1.3 -0.4,0.1 -0.3,0.6 0,0.7 3,0.9 5.9,0.7 9,0.3 0.4,-0.1 0.9,-0.1 1.3,-0.2 -1.9,1.8 -3.2,4 -2.9,7.2 0.1,0.8 1,1 1.4,0.4 5.2,-7.2 14.3,-8.5 21.2,-13.2 z"
           id="path484"
           style="fill:none" />
        <g
           id="g494">
          <path
             class="st8"
             d="m 421.1,216.8 c -3.8,0.7 -7.7,1 -11.6,0.9 -0.9,0 -1.8,-0.1 -2.7,-0.2 -0.1,0.2 0,0.4 0.2,0.5 3,0.9 5.9,0.7 9,0.3 0.4,-0.1 0.9,-0.1 1.3,-0.2 -1.9,1.8 -3.2,4 -2.9,7.2 0,0.5 0.4,0.8 0.8,0.7 0.6,-3.8 2.8,-7.1 5.9,-9.2 z"
             id="path486"
             style="fill:none" />
          <path
             class="st8"
             d="m 348.6,194.2 c -2.6,-1.2 -4.6,0.6 -6.2,2.5 -1.8,2.1 -3.8,5.6 -3.9,8.4 0,0.1 0.1,0.1 0.2,0.1 1.5,-1.4 2.2,-3.2 3.3,-5 0.9,-1.5 2.5,-4.6 4.6,-3 1.3,1 1.6,3.5 1.1,4.9 -0.5,1.5 -2.1,2.9 -1.9,4.5 0,0.2 0.2,0.4 0.4,0.4 2.4,-0.1 3.6,-4 4.5,-5.9 1.2,-2.4 0.6,-5.6 -2.1,-6.9 z"
             id="path488"
             style="fill:none" />
          <path
             class="st8"
             d="m 415.9,225.5 c 5.2,-7.1 14.3,-8.4 21.2,-13.1 5.7,-3.9 11.3,-8.6 15,-14.5 0.3,-0.6 -0.5,-1.2 -0.9,-0.7 -2.6,3.1 -5.4,5.6 -8.4,7.7 -2.9,1.5 -5.3,3.3 -8.5,4.1 -3.1,0.9 -6.1,1.8 -9,3.3 -2.8,1.4 -5,2.9 -8.1,3.6 -3.4,0.7 -6.8,0.8 -10.1,1.3 -0.1,0 -0.2,0.1 -0.2,0.2 0.9,0.1 1.8,0.2 2.7,0.2 3.9,0.2 7.8,-0.1 11.6,-0.9 -3.1,2.2 -5.2,5.5 -5.8,9.1 0.1,0 0.3,-0.1 0.5,-0.3 z"
             id="path490"
             style="fill:none" />
          <path
             class="st9"
             d="m 399.7,213.9 c 1.7,2.2 4.4,3.1 7.1,3.5 0,-0.1 0.1,-0.1 0.2,-0.2 3.4,-0.5 6.8,-0.5 10.1,-1.3 3.1,-0.7 5.3,-2.2 8.1,-3.6 2.9,-1.5 5.9,-2.4 9,-3.3 3.2,-0.9 5.7,-2.7 8.5,-4.1 3,-2.2 5.8,-4.7 8.4,-7.7 0.4,-0.5 1.3,0.2 0.9,0.7 -3.7,5.9 -9.4,10.5 -15,14.5 -6.9,4.8 -16,6 -21.2,13.1 -0.2,0.2 -0.4,0.3 -0.6,0.4 -0.1,0.8 -0.2,1.7 -0.1,2.5 0.1,1.9 0.8,3.9 2.3,5 0.2,-0.2 0.5,-0.4 0.9,-0.4 14.8,-0.5 28.8,-4.8 38.5,-16.6 4.9,-6 8.2,-13.2 11.3,-20.3 3.3,-7.7 7.4,-16.2 6.8,-24.8 -0.5,-7.5 -9.4,-2.5 -13.3,-1.2 -1.9,0.6 -3.7,1.2 -5.6,1.7 -2.4,1.3 -4.7,2.6 -7,4.2 -6.1,4.3 -11.8,9 -17.9,13.2 -8.6,6 -19.9,12.2 -31,12.9 -0.3,0.2 -0.6,0.5 -0.8,0.8 -2.6,2.8 -1.8,8.2 0.4,11 z"
             id="path492"
             style="fill:#fef5db" />
        </g>
      </g>
      <path
         class="st10"
         d="m 243.6,261.6 c 0,0 0,0 0,0 -2.8,-4.9 -4,-10.4 -7.2,-15.2 -3.2,-4.7 -7.1,-8.4 -11.9,-11.3 -0.7,6.2 -1.2,12.4 -0.6,18.7 0.7,7 2.8,13.5 4.5,20.2 4.7,-4.7 9.8,-8.9 15.2,-12.4 z"
         id="path498"
         style="fill:#9b1616" />
      <path
         class="st11"
         d="m 244.5,261.1 c 2.3,-1.5 4.7,-2.9 7.1,-4.1 2.7,-1.4 5.6,-2.6 8.6,-3.6 -4.1,-4.8 -9.6,-7.4 -15.2,-10.3 -5.3,-2.7 -10.5,-5.5 -16.1,-7.2 8,5.7 15,15.7 15.6,25.2 z"
         id="path500"
         style="fill:#d6623e" />
      <path
         class="st11"
         d="m 261.3,430.1 c -0.6,1 -1.2,2 -1.8,3 3.2,1.5 6.6,2.8 10,3.8 2.1,0.6 5,0.9 6.4,2.8 1.3,1.7 0.9,4.7 1,6.6 0.2,3.2 0.1,6.3 -0.7,9.4 -0.2,0.9 -1.6,0.7 -1.6,-0.2 0.1,-2.6 0.4,-5.1 0.1,-7.7 0,-0.4 -0.1,-0.8 -0.2,-1.2 -1.7,2 -3.7,3.8 -5,6.2 -1.2,2.2 -1.9,4.7 -1.8,7 0.3,0 0.5,0.1 0.8,0.2 0.6,0.1 1.1,0.3 1.7,0.4 0.3,0.1 0.6,0.2 0.9,0.3 0.2,0.1 0.4,0.3 0.6,0.4 0.4,0.1 0.4,0.6 0,0.7 -0.2,0.1 -0.5,0.3 -0.7,0.4 -0.3,0.1 -0.5,0.2 -0.8,0.3 -0.6,0.1 -1.1,0.3 -1.7,0.4 0.7,1.5 1.9,2.8 3.8,3.7 0,0 0,0 0.1,0 0.2,-0.1 0.3,-0.1 0.5,-0.2 0,0 0,0 0,0 0.1,0 0.2,-0.1 0.3,-0.1 0.2,-0.2 0.4,-0.4 0.5,-0.8 0.3,-1.1 1.8,-0.8 1.9,0.3 0,0.6 -0.1,1.2 -0.4,1.7 0,0 0,0 0,0.1 9.3,2 14.7,-11.1 17.8,-18 3.8,-8.4 8.9,-19.3 3.3,-28.1 -4.8,-7.6 -13.7,-9.5 -21.5,-12.6 -4.3,7.4 -9,14.2 -13.5,21.2 z"
         id="path502"
         style="fill:#d6623e" />
      <path
         class="st7"
         d="m 313.7,183.2 c -3,-7.5 -1.9,-17.4 -0.6,-25.1 0,-0.2 0.3,-0.1 0.3,0 -0.2,4.1 0,8.4 0.3,12.6 0.3,3.7 1.7,7.2 2.2,10.9 0.9,-0.7 1.9,-1.3 2.8,-1.9 3.5,-2.2 7.1,-3.6 10.8,-4.5 0,0 0,0 0,-0.1 3.5,-8.6 3.7,-17.3 2.2,-26 -0.2,-0.6 -0.5,-1.3 -0.7,-1.9 -1.9,-5.3 -3,-14.2 -10.5,-12.8 -11.1,2.1 -14.2,17.3 -15.8,26.6 -1.8,10.6 -1.1,20.7 -0.1,31.2 2.7,-3.2 5.8,-6.3 9.1,-9 z"
         id="path504"
         style="fill:#fef9d4" />
      <path
         class="st12"
         d="m 308.1,189.6 c -1,-11.2 -1.9,-22.8 1.5,-33.6 0.8,-2.4 1.8,-4.9 3.6,-6.7 1.8,-1.8 4.5,-2.9 7,-2.3 3.3,0.9 5,4.5 6.1,7.7 2.4,6.8 4.2,13.9 5.2,21 -8.1,2.8 -17.4,7.7 -23.4,13.9 z"
         id="path506"
         style="fill:#c99d79" />
      <path
         class="st13"
         d="m 275.4,251 c 3.5,1.4 8.5,-0.9 11.9,-1.9 2.8,-0.9 7,-2.5 10.8,-2.7 -1.8,-1.9 -3.5,-3.8 -5.8,-5.3 -2.3,-1.5 -4.8,-2.6 -7.3,-3.6 -0.1,0.1 -0.3,0.2 -0.5,0.3 -1.4,0.5 -2.4,1.5 -3.4,2.6 -0.5,0.5 -0.9,1.1 -1.3,1.7 -0.5,0.6 -1.1,1 -1.5,1.6 -0.1,0.2 -0.5,0.1 -0.4,-0.2 0.5,-1.6 0.7,-2.8 1.8,-4.2 0.6,-0.7 1.2,-1.3 1.8,-2 -0.1,0 -0.2,0 -0.4,0 -0.8,-0.1 -1.6,-0.3 -2.5,-0.1 -0.5,0.1 -0.9,0.3 -1.3,0.5 0,0.1 0,0.1 -0.1,0.2 -2,2.5 -8.1,10.6 -1.8,13.1 z"
         id="path508"
         style="fill:#ed1c24" />
      <path
         class="st7"
         d="m 279.6,233.4 c -0.6,-1.6 -0.9,-3.4 -1,-4.7 0,-0.6 -0.2,-1.8 -0.3,-3 -0.1,0 -0.2,0 -0.3,0 -4.1,-0.6 -6.2,-4.2 -8.1,-7.5 -1.6,-2.7 -3.1,-5.8 -4.1,-8.9 -0.2,4.4 0.2,8.7 1.6,13 1,3.2 2.6,6 4.4,8.9 1,1.5 2.3,2.7 3.4,4 1.1,-1.2 2.8,-1.7 4.4,-1.8 z"
         id="path510"
         style="fill:#fef9d4" />
      <path
         class="st14"
         d="m 274.2,218.6 c 1.2,1.6 4.6,4 6.7,3.9 3,-0.2 6.4,-4.5 8.2,-6.7 1.2,-1.4 3.2,-3.7 4.4,-5.8 -2.2,0.5 -4.5,-0.6 -6.8,-1.6 -3.9,-1.8 -15.6,-12.5 -18.2,-5.6 -0.1,0.2 -0.2,0.3 -0.3,0.3 0.2,3.9 1.7,7.8 3.8,11.7 0.7,1.3 1.4,2.7 2.2,3.8 z"
         id="path512"
         style="fill:#3a1a0e" />
      <path
         class="st7"
         d="m 356.7,232.8 c 0.2,-0.1 0.4,-0.1 0.6,-0.2 -0.2,0 -0.3,-0.1 -0.5,-0.1 -0.1,0.1 -0.1,0.2 -0.1,0.3 z"
         id="path514"
         style="fill:#fef9d4" />
      <path
         class="st15"
         d="m 274.4,199.3 c 3,0.9 5.3,3.7 7.9,5.3 2.1,1.3 4.6,2.4 7.2,2.5 1.8,0 3.5,-0.5 5.3,-0.5 0,-2.8 -2.4,-4.9 -4.4,-6.8 -3.2,-2.9 -7.2,-5.1 -11.4,-6.2 -3.2,0 -6.3,0.5 -9.4,1.9 -0.6,1.7 -1,3.4 -1.1,5 1.3,-1.5 3.6,-1.9 5.9,-1.2 z"
         id="path516"
         style="fill:#812d08" />
      <path
         class="st7"
         d="m 303.1,291.2 c 0,-0.2 0,-0.5 0,-0.7 -0.1,0 -0.2,0 -0.3,-0.1 0.1,0.3 0.2,0.5 0.3,0.8 z"
         id="path518"
         style="fill:#fef9d4" />
      <path
         class="st16"
         d="m 343.1,173.5 c 1.7,-0.1 3.5,-0.2 5.3,-0.2 -4.7,-3.3 -8.5,-8.2 -11.3,-12.9 -0.8,-1.4 -1.5,-2.8 -2.2,-4.2 0.1,6.2 -0.9,12.5 -2.5,18.5 3.3,-0.7 6.9,-1 10.7,-1.2 z"
         id="path520"
         style="fill:#ff9534" />
      <path
         class="st16"
         d="m 505.8,388.1 c 0.4,-5.1 0.7,-10.1 0,-15.3 -0.9,-6.9 -4.6,-19 -13.4,-17.5 1.2,4 2,8.2 2.5,12.3 4,6.5 8,13.4 10.9,20.5 z"
         id="path522"
         style="fill:#ff9534" />
      <path
         class="st11"
         d="m 327.6,334.8 c 3.5,-7.7 1.8,-16.6 -0.5,-24.5 -1.1,-4 -2.4,-7.9 -3.8,-11.8 -1,-2.9 -2.4,-5.8 -2.8,-8.9 -0.4,-0.3 -0.7,-0.7 -1.1,-1 -0.3,-0.3 -0.6,-0.5 -0.8,-0.7 -0.1,-0.1 -0.2,-0.2 -0.4,-0.4 -1,-0.9 -2,-1.8 -3,-2.7 -0.7,-0.4 -1.4,-0.8 -2.4,-1.1 -1.8,-0.5 -3.6,-0.6 -5.4,-1.1 -0.3,-0.1 -0.4,-0.7 0,-0.7 1.5,-0.3 3.1,-0.1 4.7,0.3 -0.5,-0.5 -1.1,-0.9 -1.6,-1.4 -5.4,-4.6 -11.1,-9 -16.3,-13.9 -3.2,-2.9 -7.6,-6.5 -10.1,-10.5 -6.4,-2.2 -13.1,-2.2 -19.6,-0.6 -0.4,0.2 -0.8,0.3 -1.2,0.3 -5,1.4 -9.9,3.6 -14.4,6.4 -10.9,6.7 -21.6,15.8 -28.1,27 -7.5,13 -7.5,27.3 0.1,40.3 3.5,5.9 7.9,11.2 12.4,16.4 1.8,2.2 3.8,4.3 5.5,6.6 2.2,2.9 3.1,6.4 5.1,9.5 0.1,0.1 -0.1,0.2 -0.2,0.1 -1.5,-2 -3.4,-3.8 -5.3,-5.7 -4.3,2 -8.8,3.1 -12.8,5.8 -2.1,1.4 -4,3.1 -5.9,4.7 -0.1,0.2 -0.3,0.4 -0.6,0.5 -1.9,1.7 -3.9,3.4 -6,5 -0.3,0.2 -0.8,-0.2 -0.6,-0.6 1.2,-1.9 2.6,-3.5 4.2,-5.1 -5.6,-3.2 -9.3,-9.6 -12.7,-14.8 -4.8,-7.3 -9.8,-13.7 -17.6,-18.1 -17,-9.8 -36.6,-6.3 -52,4.6 -0.8,0.6 -1.7,-0.7 -1,-1.3 1.9,-2 4,-3.8 6.2,-5.4 -23.5,-11.4 -49.2,-28.1 -54.4,-55.6 -2.1,-10.9 -0.4,-22.2 6.2,-31.4 3.4,-4.7 7.6,-8.6 12.2,-12.1 3.5,-2.7 7.7,-7 12.3,-4.5 3.8,2 7.8,6.9 9.5,10.8 1.1,2.6 0.7,4.3 0.6,7 -0.1,7.4 6,6.7 10.5,4.1 10.5,-5.8 -3.3,-17.3 -8.9,-20.9 -5.5,-3.5 -12.4,-6.4 -19,-5.9 -13.4,0.9 -24.6,14.6 -29.6,25.9 -5.4,12.1 -6,25.7 -1.7,38.2 4.4,12.8 13,23.6 22.4,33.1 8.8,9 18.5,19 30,24.6 1,-1.5 3.6,-0.5 3.3,1.6 -3.9,22.3 -6.2,44.5 -4.1,67.1 1.9,20.4 7.2,40.3 15.7,59 4.1,9 9.1,18.2 16.8,24.7 3.9,3.3 8.5,6.1 13.4,7.7 1,0.3 2,0.6 3,0.8 -0.2,-0.8 -0.5,-1.7 -0.8,-2.4 -0.2,-0.4 0.3,-0.8 0.6,-0.5 0.9,0.9 1.4,1.9 1.9,3.1 0,0 0,0 0.1,0 0.1,0 0.1,0.1 0.1,0.1 0.7,0.1 1.4,0.2 2.2,0.3 1,0.1 2.8,0 4.5,-0.4 0,-0.7 0.1,-1.1 0.4,-1.7 0.3,-0.6 0.2,-1.1 -0.1,-1.7 -0.6,-1.3 -1.8,-2.1 -2.9,-2.9 -0.3,-0.2 -0.1,-0.6 0.2,-0.6 1.6,0.4 2.8,1.6 3.6,3 0.4,0.7 0.8,1.3 1.4,2 0.3,0.3 0.4,0.6 0.5,1 1.8,-1 2.9,-2.6 1.6,-5.2 -1.4,-2.9 -6.5,-3.7 -8.9,-5.7 -2.5,-2.1 -3.5,-5 -4.4,-8 -2.7,-9.3 -2.9,-19.2 -1.8,-28.8 0.5,-4.4 1.3,-8.7 2.2,-13.1 -0.1,-0.1 -0.1,-0.3 -0.2,-0.4 -0.1,-0.4 0.1,-0.7 0.4,-0.8 3.3,-15.8 7.9,-31.6 7.2,-47.9 0,-0.6 0.9,-0.6 1,0 1.1,16.4 -3.1,32.4 -5.9,48.4 1.6,0.8 3,1.9 4.7,2.9 2.6,1.5 5.4,2.8 8.3,3.9 4.6,1.7 9.2,2 13.9,2.9 -0.8,-5.3 -1.3,-10.7 -1.4,-16.1 0,-1 1.5,-1.2 1.7,-0.2 3,15 5.9,30 10.8,44.5 1.3,3.8 2.6,7.5 4.1,11.2 1.2,3 2.9,9.2 5.2,11.7 1.7,1.8 4.7,2.1 7.7,2 -0.1,-0.5 -0.2,-0.9 -0.3,-1.4 0,-0.3 -0.1,-0.6 -0.1,-0.9 0,-0.5 0.1,-0.9 0.1,-1.4 0,-0.3 0.5,-0.5 0.6,-0.2 0.2,0.4 0.5,0.7 0.7,1.2 0.1,0.3 0.2,0.6 0.3,0.9 0.2,0.6 0.4,1.1 0.5,1.7 1.2,-0.1 2.3,-0.2 3.3,-0.3 1.1,-0.1 2.9,-0.1 4.7,-0.4 0,-0.3 0.1,-0.6 0.1,-0.9 0,-0.5 -0.3,-1.1 -0.5,-1.5 -0.4,-0.9 -0.9,-2 -1.6,-2.7 -0.4,-0.3 0.2,-0.9 0.6,-0.6 1,0.9 1.9,1.3 2.6,2.6 0.3,0.6 0.5,1.1 0.7,1.7 0.1,0.3 0.3,0.6 0.4,1 2.6,-0.7 4.5,-2.2 3.5,-5.3 -0.6,-1.9 -3.6,-3.8 -4.7,-5.5 -1.4,-2.2 -1.9,-4.4 -2.1,-6.9 -0.8,-7.6 -0.7,-15.4 0,-23 0.7,-7 2.1,-13.7 3.8,-20.4 1.8,-7 3.3,-15 7.5,-21 0.1,-0.2 0.4,-0.1 0.4,0.2 -0.7,4.8 -2.7,9.5 -4,14.3 -0.3,1.2 -0.6,2.3 -0.9,3.5 5.6,-12.8 15.4,-24 22.2,-35.9 4.9,-8.6 8.1,-17.4 10.4,-27 1.4,-5.8 2.9,-12.3 6.8,-17.1 -0.2,-0.6 -0.1,-1.2 0.5,-1.8 10.5,-10.6 29.7,-9.8 36.4,-24.9 z M 269,273.7 c -0.4,0 -0.5,-0.6 -0.2,-0.7 8.2,-4.4 21.3,-3.6 27.3,4.2 0.3,0.4 -0.2,0.8 -0.5,0.7 -4.2,-1 -8.2,-2.7 -12.5,-3.5 -5,-1 -9.1,-1 -14.1,-0.7 z m 47.9,30.5 c -3.9,2.3 -9.2,2.5 -13.4,0.7 -3.5,1 -9.2,-1.3 -11.7,-2.9 -4.6,-2.8 -9,-6.4 -11.7,-11.1 -0.2,-0.3 0.2,-0.6 0.5,-0.4 4.9,4.7 9.4,7.5 15.8,9.6 0.6,0.2 7.2,2.4 7.6,1.9 0,-0.1 -0.4,-4.1 -0.5,-5 -1.9,-2.3 -3.3,-4.8 -4.2,-7.7 -0.2,0 -0.4,0 -0.5,-0.1 -0.3,-0.1 -0.5,-0.4 -0.3,-0.7 0.2,-0.4 0.5,-0.7 0.9,-0.9 0.3,-0.4 0.9,-0.7 1.6,-0.6 0,0 0,0 0,0 0.9,-0.2 1.9,-0.3 2.6,-0.3 1.6,-0.1 3.3,0.3 4.4,1.4 3.2,3 -0.2,7.2 -2.8,9.2 -0.2,0.1 -0.4,0.2 -0.6,0.2 0,1.2 -0.1,3.4 0.2,4.6 3.9,-0.5 8.2,-0.1 11.7,1.2 0.6,0.1 0.7,0.7 0.4,0.9 z"
         id="path524"
         style="fill:#d6623e" />
      <g
         id="g546">
        <g
           id="g544">
          <g
             id="g528">
            <path
               class="st17"
               d="m 168,456.9 c -1.8,-1.2 -4.3,-0.8 -6.1,0.4 -1.8,1.2 -3,3.1 -4,5 -4,7.3 -6.2,15.7 -6.4,24 2.7,4.2 5.9,8.1 9.7,11.4 3.9,3.3 8.5,6.1 13.4,7.7 1,0.3 2,0.6 3,0.8 -0.2,-0.8 -0.5,-1.7 -0.8,-2.4 -0.2,-0.4 0.3,-0.8 0.6,-0.5 0.9,0.9 1.4,1.9 1.9,3.1 0,0 0,0 0.1,0 0.1,0 0.1,0.1 0.1,0.1 0.7,0.1 1.4,0.2 2.2,0.3 1,0.1 2.8,0 4.5,-0.4 0,-0.7 0.1,-1.1 0.4,-1.7 0.3,-0.6 0.2,-1.1 -0.1,-1.7 -0.6,-1.3 -1.8,-2.1 -2.9,-2.9 -0.3,-0.2 -0.1,-0.6 0.2,-0.6 1.6,0.4 2.8,1.6 3.6,3 0.4,0.7 0.8,1.3 1.4,2 0.3,0.3 0.4,0.6 0.5,1 1.8,-1 2.9,-2.6 1.6,-5.2 -1.4,-2.9 -6.5,-3.7 -8.9,-5.7 -2.5,-2.1 -3.5,-5 -4.4,-8 -1,-3.3 -1.6,-6.7 -2,-10.1 -1.8,-5.5 -2.7,-11.5 -5.4,-16.7 -0.5,-1.1 -1.2,-2.2 -2.2,-2.9 z"
               id="path526"
               style="fill:#ffd0ac" />
          </g>
          <g
             id="g532">
            <path
               class="st17"
               d="m 205.2,423.3 c -0.2,-0.6 -0.6,-1.3 -1.2,-1.2 -0.3,0.1 -0.5,0.3 -0.7,0.6 -2.1,2.8 -2.4,6.5 -3.1,9.9 -0.1,0.4 -0.2,0.8 -0.5,1 -0.4,0.2 -0.8,0 -1.2,-0.2 -5.4,-3 -10.1,-7.4 -13.6,-12.6 -1.2,7.8 -2.9,15.5 -4.3,23.2 1.6,0.8 3,1.9 4.7,2.9 2.6,1.5 5.4,2.8 8.3,3.9 4.6,1.7 9.2,2 13.9,2.9 -0.8,-5.3 -1.3,-10.7 -1.4,-16.1 0,-0.3 0.2,-0.6 0.4,-0.7 -0.4,-2.7 -0.7,-5.4 -0.7,-8.1 -0.1,-1.9 -0.1,-3.8 -0.6,-5.5 z"
               id="path530"
               style="fill:#ffd0ac" />
          </g>
          <g
             id="g538">
            <g
               id="g536">
              <path
                 class="st17"
                 d="m 311.9,290.7 c -1.7,-2.5 -2.7,-5.4 -4.4,-7.9 0,0 0,0 -0.1,0 -0.2,-0.1 -0.3,-0.3 -0.3,-0.5 -1.8,-2.6 -5.3,-5.5 -7.8,-3.7 -5.1,3.7 -11.2,5.9 -17.5,6.6 -3.3,0.3 -6.7,0.2 -10,0.7 -11.6,1.8 -21.4,12.2 -22.3,24 -0.5,6.6 1.4,13.1 2.9,19.5 3.2,14 4.3,28.4 4.8,42.7 0.3,7.2 2.5,34 1.3,40 -0.8,3.9 -1.7,7.6 -2.6,11.2 0,0 0.1,0.1 0,0.2 -0.5,3.3 -1.6,6.6 -2.7,9.8 -0.5,2 -1,4.1 -1.4,6.1 5.7,-12 14.9,-22.8 21.4,-34.1 4.9,-8.6 8.1,-17.4 10.4,-27 1.4,-5.8 2.9,-12.3 6.8,-17.1 -0.2,-0.6 -0.1,-1.2 0.5,-1.8 10.7,-10.3 29.9,-9.4 36.7,-24.5 3.5,-7.7 1.8,-16.6 -0.5,-24.5 -0.2,-0.8 -0.5,-1.5 -0.7,-2.3 -1.6,-3.2 -3.6,-6.2 -6.1,-8.8 -2.8,-2.9 -6.1,-5.3 -8.4,-8.6 z m 5,13.5 c -3.9,2.3 -9.2,2.5 -13.4,0.7 -3.5,1 -9.2,-1.3 -11.7,-2.9 -4.6,-2.8 -9,-6.4 -11.7,-11.1 -0.2,-0.3 0.2,-0.6 0.5,-0.4 4.9,4.7 9.4,7.5 15.8,9.6 0.6,0.2 7.2,2.4 7.6,1.9 0,-0.1 -0.4,-4.1 -0.5,-5 -1.9,-2.3 -3.3,-4.8 -4.2,-7.7 -0.2,0 -0.4,0 -0.5,-0.1 -0.3,-0.1 -0.5,-0.4 -0.3,-0.7 0.2,-0.4 0.5,-0.7 0.9,-0.9 0.3,-0.4 0.9,-0.7 1.6,-0.6 0,0 0,0 0,0 0.9,-0.2 1.9,-0.3 2.6,-0.3 1.6,-0.1 3.3,0.3 4.4,1.4 3.2,3 -0.2,7.2 -2.8,9.2 -0.2,0.1 -0.4,0.2 -0.6,0.2 0,1.2 -0.1,3.4 0.2,4.6 3.9,-0.5 8.2,-0.1 11.7,1.2 0.6,0.1 0.7,0.7 0.4,0.9 z"
                 id="path534"
                 style="fill:#ffd0ac" />
            </g>
          </g>
          <g
             id="g542">
            <path
               class="st17"
               d="m 235.9,457.4 c -1.5,-0.2 -3,0.4 -4.3,1.2 -4.6,2.7 -7.7,7.2 -10.2,11.8 -1.5,2.7 -2.7,5.5 -3.8,8.4 0.3,1.1 0.6,2.1 1,3.2 1.3,3.8 2.6,7.5 4.1,11.2 1.2,3 2.9,9.2 5.2,11.7 1.7,1.8 4.7,2.1 7.7,2 -0.1,-0.5 -0.2,-0.9 -0.3,-1.4 0,-0.3 -0.1,-0.6 -0.1,-0.9 0,-0.5 0.1,-0.9 0.1,-1.4 0,-0.3 0.5,-0.5 0.6,-0.2 0.2,0.4 0.5,0.7 0.7,1.2 0.1,0.3 0.2,0.6 0.3,0.9 0.2,0.6 0.4,1.1 0.5,1.7 1.2,-0.1 2.3,-0.2 3.3,-0.3 1.1,-0.1 2.9,-0.1 4.7,-0.4 0,-0.3 0.1,-0.6 0.1,-0.9 0,-0.5 -0.3,-1.1 -0.5,-1.5 -0.4,-0.9 -0.9,-2 -1.6,-2.7 -0.4,-0.3 0.2,-0.9 0.6,-0.6 1,0.9 1.9,1.3 2.6,2.6 0.3,0.6 0.5,1.1 0.7,1.7 0.1,0.3 0.3,0.6 0.4,1 2.6,-0.7 4.5,-2.2 3.5,-5.3 -0.6,-1.9 -3.6,-3.8 -4.7,-5.5 -1.4,-2.2 -1.9,-4.4 -2.1,-6.9 -0.5,-4.7 -0.7,-9.5 -0.5,-14.3 -0.8,-2.9 -1.5,-5.8 -2.3,-8.7 -1,-3.4 -2.5,-7.2 -5.7,-7.6 z"
               id="path540"
               style="fill:#ffd0ac" />
          </g>
        </g>
      </g>
      <g
         id="g558">
        <g
           id="g556">
          <g
             id="g550">
            <path
               class="st10"
               d="m 247.3,244.3 c -0.8,-0.4 -1.6,-0.8 -2.4,-1.2 -0.6,-0.3 -1.3,-0.7 -1.9,-1 -0.2,0.8 -0.3,1.7 -0.4,2.5 1.5,0.1 3.1,0 4.7,-0.3 z"
               id="path548"
               style="fill:#9b1616" />
          </g>
          <g
             id="g554">
            <path
               class="st10"
               d="m 257.6,250.8 c -1.9,-1.7 -4,-3.1 -6.2,-4.3 -1.8,1.9 -3.1,4.2 -3.7,6.7 3.3,-0.8 6.6,-1.6 9.9,-2.4 z"
               id="path552"
               style="fill:#9b1616" />
          </g>
        </g>
      </g>
      <g
         id="g626">
        <g
           id="g624">
          <path
             class="st10"
             d="m 316.7,303.3 c -3.5,-1.2 -7.8,-1.6 -11.7,-1.2 -0.3,-1.2 -0.2,-3.4 -0.2,-4.6 0.2,0 0.4,-0.1 0.6,-0.2 2.6,-2 5.9,-6.1 2.8,-9.2 -1.2,-1.1 -2.8,-1.5 -4.4,-1.4 -0.7,0 -1.7,0.1 -2.6,0.3 0,0 0,0 0,0 -0.6,-0.1 -1.2,0.1 -1.6,0.6 -0.4,0.2 -0.7,0.5 -0.9,0.9 -0.2,0.3 0,0.6 0.3,0.7 0.2,0.1 0.4,0.1 0.5,0.1 0.8,2.9 2.3,5.3 4.2,7.7 0.1,0.9 0.5,5 0.5,5 -0.5,0.5 -7,-1.7 -7.6,-1.9 -6.5,-2.1 -11,-4.9 -15.8,-9.6 -0.2,-0.2 -0.6,0.1 -0.5,0.4 2.7,4.7 7.1,8.3 11.7,11.1 2.5,1.5 8.2,3.8 11.7,2.9 4.2,1.8 9.5,1.6 13.4,-0.7 0.1,-0.2 0,-0.8 -0.4,-0.9 z"
             id="path560"
             style="fill:#9b1616" />
          <path
             class="st10"
             d="m 295.6,277.9 c 0.4,0.1 0.8,-0.4 0.5,-0.7 -5.9,-7.8 -19.1,-8.6 -27.3,-4.2 -0.3,0.2 -0.2,0.8 0.2,0.7 5,-0.3 9.1,-0.3 14.1,0.7 4.3,0.8 8.2,2.5 12.5,3.5 z"
             id="path562"
             style="fill:#9b1616" />
          <g
             id="g566">
            <path
               class="st10"
               d="m 89.6,289.6 c -3,2.2 -5.8,4.7 -8.2,7.6 2.4,4.5 5.3,8.7 8.5,12.7 1.8,-3.4 4,-6.6 6.5,-9.5 -2.7,-3.4 -5,-7 -6.8,-10.8 z"
               id="path564"
               style="fill:#9b1616" />
          </g>
          <g
             id="g570">
            <path
               class="st10"
               d="m 113.5,316.6 c -2.1,4.2 -3.7,8.7 -4.8,13.3 4.3,4.1 8.8,8 13.6,11.2 1.1,-5.3 3.1,-10.4 5.5,-15.4 -4.9,-2.7 -9.7,-5.7 -14.3,-9.1 z"
               id="path568"
               style="fill:#9b1616" />
          </g>
          <g
             id="g574">
            <path
               class="st10"
               d="m 125.2,239.1 c 0,0.1 0.1,0.1 0.1,0.2 1.1,2.6 0.7,4.3 0.6,7 -0.1,7.4 6,6.7 10.5,4.1 7.1,-4 3,-10.6 -2.1,-15.5 -2.8,0.3 -5.7,1.4 -7.9,3.2 -0.4,0.3 -0.8,0.6 -1.2,1 z"
               id="path572"
               style="fill:#9b1616" />
          </g>
          <g
             id="g578">
            <path
               class="st10"
               d="m 85.6,257.4 c -3.7,0.8 -7.2,2.2 -10.5,4 -0.9,4.8 -1,9.7 -0.6,14.5 3.1,-1.8 6.5,-3.1 10,-4 -0.4,-4.9 -0.1,-9.8 1.1,-14.5 z"
               id="path576"
               style="fill:#9b1616" />
          </g>
          <g
             id="g582">
            <path
               class="st10"
               d="m 258.1,275.1 c -12.8,1.1 -25.3,5.5 -36.1,12.5 -0.4,0.6 -0.8,1.3 -1.2,1.9 -1.5,2.6 -2.7,5.3 -3.6,8 10.8,-11.6 25.3,-19.8 40.9,-22.4 z"
               id="path580"
               style="fill:#9b1616" />
          </g>
          <g
             id="g586">
            <path
               class="st10"
               d="m 95.3,240.3 c 2.5,-2.7 5.3,-5.1 8.3,-7.4 1.7,-1.3 3.6,-3.1 5.7,-4.2 -1.3,-1.7 -2.8,-3.3 -4.4,-4.7 -6.5,1.6 -12.3,6.1 -17.1,11.5 2,0.7 3.9,1.8 5.6,3.1 0.6,0.6 1.2,1.1 1.9,1.7 z"
               id="path584"
               style="fill:#9b1616" />
          </g>
          <g
             id="g590">
            <path
               class="st10"
               d="m 164.1,362.3 c -0.4,-6.7 -0.8,-13.4 0.2,-20 0.7,-4.8 2.1,-9.6 4.5,-13.8 -5.3,-0.5 -10.6,0.1 -15.7,1.4 -0.4,11.6 3.6,23.4 11,32.4 z"
               id="path588"
               style="fill:#9b1616" />
          </g>
          <g
             id="g594">
            <path
               class="st10"
               d="m 160.5,386.6 c -12,-5.2 -22.4,-13.6 -30.2,-24.1 -0.9,6.5 -1.6,13.1 -2,19.6 8,3.4 16.2,6.7 24.8,7.2 2.9,0.2 6.1,-0.2 7.4,-2.7 z"
               id="path592"
               style="fill:#9b1616" />
          </g>
          <g
             id="g598">
            <path
               class="st10"
               d="m 160.6,421.1 c 1.8,-1 3.8,-2.7 3.4,-4.7 -12.4,0.3 -24.9,-2.8 -35.8,-8.8 0.1,2.2 0.3,4.3 0.5,6.5 0.3,3.7 0.8,7.4 1.4,11.1 1.3,0.3 2.6,0.6 3.9,0.8 9,1.4 18.6,-0.4 26.6,-4.9 z"
               id="path596"
               style="fill:#9b1616" />
          </g>
          <g
             id="g602">
            <path
               class="st10"
               d="m 181,374.8 c 2.3,-11.9 7.6,-23.3 15.2,-32.8 -2.5,-2.7 -5.4,-5.2 -8.7,-7.3 -4.4,9.6 -8,19.5 -7.7,30 0.1,3.4 0.5,6.8 1.2,10.1 z"
               id="path600"
               style="fill:#9b1616" />
          </g>
          <g
             id="g606">
            <path
               class="st10"
               d="m 250.1,284.6 c -9.9,3.4 -18.6,10 -25.4,17.9 -3.4,4 -6.4,8.3 -9,12.8 0.6,4.1 2,8.2 4,12.2 4.3,-17.4 15.2,-33 30.4,-42.9 z"
               id="path604"
               style="fill:#9b1616" />
          </g>
          <g
             id="g610">
            <path
               class="st10"
               d="m 225.2,336.2 c 1.2,1.7 2.5,3.3 3.8,4.9 1.6,-9.8 4.4,-19.4 9,-28.1 -5.9,6.7 -10.3,14.7 -12.8,23.2 z"
               id="path608"
               style="fill:#9b1616" />
          </g>
          <g
             id="g614">
            <path
               class="st10"
               d="m 238.3,312.6 c -0.1,0.2 -0.2,0.3 -0.2,0.5 0.2,-0.3 0.5,-0.5 0.7,-0.8 0.2,-0.3 -0.3,0 -0.5,0.3 z"
               id="path612"
               style="fill:#9b1616" />
          </g>
          <g
             id="g618">
            <path
               class="st10"
               d="m 198.6,400 c 2.2,-10.2 7.1,-19.7 13.9,-27.5 0,-0.1 -0.1,-0.2 0,-0.4 1.2,-1.9 2.6,-3.5 4.2,-5.1 -2.8,-1.5 -5,-3.9 -7,-6.4 -5.9,9.1 -12,24.9 -11.1,39.4 z"
               id="path616"
               style="fill:#9b1616" />
          </g>
          <g
             id="g622">
            <path
               class="st10"
               d="m 239.2,406.4 c -3.4,-16.3 -3.8,-33.1 -1.1,-49.5 -3.3,1.5 -6.8,2.5 -10,4.1 0,15.7 4,31.3 11.1,45.4 z"
               id="path620"
               style="fill:#9b1616" />
          </g>
        </g>
      </g>
      <g
         id="g630">
        <path
           class="st12"
           d="m 465.2,182.4 c -1.8,-2.1 -5.3,-1.3 -7.8,-0.1 -11,5.6 -18.9,14.9 -31.3,17.6 -8.4,1.9 -21,2.7 -26.1,10.8 -0.4,0.7 -0.7,1.5 -0.9,2.3 0.2,0.3 0.3,0.5 0.5,0.7 1.7,2.2 4.4,3.1 7.1,3.5 0,-0.1 0.1,-0.1 0.2,-0.2 3.4,-0.5 6.8,-0.5 10.1,-1.3 3.1,-0.7 5.3,-2.2 8.1,-3.6 2.9,-1.5 5.9,-2.4 9,-3.3 3.2,-0.9 5.7,-2.7 8.5,-4.1 3,-2.2 5.8,-4.7 8.4,-7.7 0.4,-0.5 1.3,0.2 0.9,0.7 -3.7,5.9 -9.4,10.5 -15,14.5 -6.9,4.8 -16,6 -21.2,13.1 -0.2,0.2 -0.4,0.3 -0.6,0.4 -0.1,0.8 -0.2,1.7 -0.1,2.5 0.1,1.9 0.8,3.9 2.3,5 0.2,-0.2 0.5,-0.4 0.9,-0.4 14.8,-0.5 28.8,-4.8 38.5,-16.6 0.5,-0.6 0.9,-1.1 1.3,-1.7 5,-8.3 7.9,-18 8.1,-27.8 0.2,-1.4 0.1,-3.1 -0.9,-4.3 z"
           id="path628"
           style="fill:#c99d79" />
      </g>
      <g
         id="g638">
        <path
           class="st8"
           d="m 437.1,212.4 c 5.7,-3.9 11.3,-8.6 15,-14.5 0.3,-0.6 -0.5,-1.2 -0.9,-0.7 -2.6,3.1 -5.4,5.6 -8.4,7.7 -2.9,1.5 -5.3,3.3 -8.5,4.1 -3.1,0.9 -6.1,1.8 -9,3.3 -2.8,1.4 -5,2.9 -8.1,3.6 -3.4,0.7 -6.8,0.8 -10.1,1.3 -0.4,0.1 -0.3,0.6 0,0.7 3,0.9 5.9,0.7 9,0.3 0.4,-0.1 0.9,-0.1 1.3,-0.2 -1.9,1.8 -3.2,4 -2.9,7.2 0.1,0.8 1,1 1.4,0.4 5.2,-7.2 14.3,-8.5 21.2,-13.2 z"
           id="path632"
           style="fill:none" />
        <path
           class="st8"
           d="m 348.6,194.2 c -2.6,-1.2 -4.6,0.6 -6.2,2.5 -1.8,2.1 -3.8,5.6 -3.9,8.4 0,0.1 0.1,0.1 0.2,0.1 1.5,-1.4 2.2,-3.2 3.3,-5 0.9,-1.5 2.5,-4.6 4.6,-3 1.3,1 1.6,3.5 1.1,4.9 -0.5,1.5 -2.1,2.9 -1.9,4.5 0,0.2 0.2,0.4 0.4,0.4 2.4,-0.1 3.6,-4 4.5,-5.9 1.2,-2.4 0.6,-5.6 -2.1,-6.9 z"
           id="path634"
           style="fill:none" />
        <path
           class="st16"
           d="m 379.6,447.8 c 0.3,-1.3 0.6,-2.6 0.3,-3.8 -0.3,-1.6 -1.4,-2.9 -2.6,-4.1 -13,-13.9 -31.2,-22.4 -43,-37.3 -11.4,-14.4 -15.6,-32.8 -18.2,-51.3 -3.1,1.6 -6.3,2.9 -9.5,4.3 -1.6,18.5 5.6,35.7 13.3,52.2 1.9,4.1 3.8,8.2 5.6,12.4 4.6,-8.3 22,1 28.2,6.3 9.2,8 18.1,16.5 24.1,27.1 0.4,-1.4 0.9,-2.7 1.4,-4 0.1,-0.7 0.3,-1.3 0.4,-1.8 z"
           id="path636"
           style="fill:#ff9534" />
      </g>
      <g
         id="g646">
        <path
           class="st14"
           d="m 467.1,375.1 c -0.1,4.1 -0.2,8.4 1.2,12.3 1.4,3.9 4.6,7.5 8.7,7.9 3.8,0.4 7.5,-1.8 9.7,-4.9 2.3,-3.1 3.4,-6.8 4.3,-10.5 0.2,-0.8 0.4,-1.7 0.6,-2.5 0,-5.6 -0.6,-11.2 -2.2,-17 -3.1,-11.7 -9.1,-21.4 -16.8,-30.7 -4.4,-5.3 -8.7,-10.7 -13,-16.1 6.6,19.5 7.8,40.9 7.5,61.5 z"
           id="path640"
           style="fill:#3a1a0e" />
        <path
           class="st16"
           d="m 495.2,375 c -0.1,7.4 -1.6,14.8 -4.7,21.7 -0.2,0.5 -0.9,0.1 -0.8,-0.4 0.3,-1.5 0.5,-3 0.7,-4.4 -1.2,2.4 -2.8,4.5 -4.7,6.3 -11,9.9 -23.5,1.3 -23.5,-11.9 0,-17.3 3.2,-34 -3.3,-50.8 -2.7,-7 -6.8,-13.5 -9.9,-20.4 -3.1,-7.1 -5.1,-14.7 -7,-22.3 -0.4,-1.6 -0.8,-3.1 -1.2,-4.7 -1.6,-2.3 -3.1,-4.7 -4.5,-7.1 3.1,8.7 7.2,17.5 5.4,26.3 -0.1,0.7 -1.4,0.8 -1.5,0 -0.8,-6.2 -1.9,-11.9 -4.1,-17.8 -2.3,-6 -4.9,-12 -6.6,-18.2 -3.1,-11.5 -0.3,-23.8 -4,-35.1 -2.6,0 -5.2,-0.3 -7.7,-0.9 -1,-0.2 -1,-1.3 -0.5,-1.9 -1.5,-1.1 -2.2,-3.1 -2.3,-5 0,-0.9 0,-1.7 0.1,-2.5 -0.4,0 -0.8,-0.2 -0.8,-0.7 -0.3,-3.2 0.9,-5.5 2.9,-7.2 -0.5,0.1 -0.9,0.1 -1.3,0.2 -3.1,0.5 -6,0.7 -9,-0.3 -0.2,-0.1 -0.3,-0.3 -0.2,-0.5 -2.8,-0.4 -5.5,-1.3 -7.1,-3.5 -2.2,-2.8 -3,-8.2 -0.4,-11 0.3,-0.3 0.5,-0.5 0.8,-0.8 -2.2,0.1 -4.5,0.1 -6.6,-0.3 -0.3,0 -0.3,-0.5 0,-0.5 7.9,-1.2 14.8,-2.9 21.7,-7.1 6.1,-3.8 11.9,-7.8 17.7,-12 3.5,-2.6 7.1,-4.9 10.8,-7.1 -5.6,1.3 -11.3,2.4 -17,3.3 -7.2,1.1 -14.4,1.8 -21.6,3 -7.5,1.2 -14,4.1 -20.7,7.7 -0.4,0.2 -0.8,-0.3 -0.5,-0.6 2.1,-2.3 4.6,-4.2 7.3,-5.8 -2.5,-0.5 -4.9,-1.4 -7.3,-2 -4.2,-1.1 -8.6,-1.8 -12.9,-2.2 -8.1,-0.8 -16.3,-0.7 -24.4,-0.5 -8.8,0.2 -18.4,-0.2 -26.3,4.2 -6.1,3.4 -10.3,8.9 -15.2,13.6 0,0.1 0,0.3 0,0.4 0,0 0,0.1 0,0.1 1.9,0.5 3.7,0.8 5.5,1 0,-0.1 -0.1,-0.2 0,-0.4 0.5,-3 1.6,-6.2 5,-7 1.5,-0.4 3.2,0.5 4,1.8 0.4,0.6 0.7,1.5 0.5,2.3 -0.1,0.2 -0.3,0.7 -0.3,0.8 -0.1,0.4 -0.1,0.5 -0.4,0.9 -0.4,0.6 -1.2,0.6 -1.6,0 -0.2,-0.3 -0.2,-0.6 -0.3,-0.9 -0.7,-0.7 -1,-1.8 -2.3,-1.8 -1.7,0.1 -2.7,3 -3.1,4.3 0,0.1 -0.1,0.1 -0.1,0.1 2,0.2 4,0.3 6,0.3 0.5,-0.1 1,-0.3 1.5,-0.5 3.9,-1.6 7.4,-4.8 11.6,-4.9 0.5,0 1.1,0.1 1.4,0.4 0.4,0.4 0.4,1.2 0.4,1.8 -0.3,3.8 -0.7,8.3 -1.3,12.1 3.8,3.5 9.2,4.3 14.3,4.7 10,0.8 20.1,0.7 30.1,-0.3 2.9,-0.3 5.9,-0.7 8.6,0.4 3.4,1.3 5.5,4.6 7.4,7.6 4,6.3 8,12.7 11.2,19.5 0,0 0,0 0,-0.1 -0.2,-0.8 1,-1.1 1.2,-0.3 2.3,6.5 3.8,13.5 5.4,20.2 1.1,4.6 2,9.6 1,14.3 -0.8,3.9 -2.9,8 -6.6,9.7 -2.6,1.2 -5.5,1.5 -8.1,2.5 -2.2,0.8 -4,2 -5.8,3.2 -0.5,0.4 -1.1,0.9 -1.6,1.3 -5.2,4.6 -9.5,10.6 -10.6,17.4 -1.2,7.5 1.3,16 -3.1,22.1 -1,1.4 -2.3,2.5 -2.8,4.1 -0.9,2.7 0.8,5.6 3.2,7.1 2.4,1.5 5.3,1.7 8.1,1.7 18.2,-0.1 37.2,-8.4 48.4,-22.8 4.5,10.5 8.9,21.1 11.1,32.2 2.1,11.2 1.7,23.2 -3.2,33.4 -3.9,7.9 -10.3,14.4 -17.4,19.6 -6,4.4 -12.6,8.2 -17.4,13.9 -1.1,1.3 -2,2.7 -2.8,4.2 0,0.1 0,0.1 0,0.2 -0.9,2.8 -1.2,5.6 -1.1,8.3 2.4,-4.8 6.1,-8.9 10.4,-12.2 6.2,-4.8 13.5,-7.8 21,-10 6.8,-1.9 14.8,-2.8 20.1,1.7 3.9,3.4 5.3,9 5.2,14.2 0,11.9 -5.6,23 -9.5,34.3 1.8,-2.6 4,-5 6.3,-7.2 5.5,-5.3 11.3,-10.1 16,-16.1 5.4,-6.8 9.2,-14.2 12.6,-22 0.2,-0.4 0.8,-0.1 0.7,0.3 -1.6,8.7 -6.2,16.6 -11.9,23.7 2.7,-2.6 5.5,-5.2 8.2,-7.8 2.1,-2 4.3,-4 5.8,-6.5 1.9,-3.1 2.7,-6.8 4.7,-9.8 2.4,-3.7 6.4,-6.4 10.8,-7 1.4,-0.2 3,-0.1 4.1,0.6 C 505.2,395.6 500,385.3 495.2,375 Z M 350.7,201.1 c -0.9,1.8 -2.1,5.8 -4.5,5.9 -0.2,0 -0.4,-0.2 -0.4,-0.4 -0.2,-1.6 1.5,-3 1.9,-4.5 0.4,-1.4 0.1,-3.9 -1.1,-4.9 -2.1,-1.5 -3.7,1.5 -4.6,3 -1,1.8 -1.7,3.6 -3.3,5 -0.1,0.1 -0.2,0 -0.2,-0.1 0,-2.9 2,-6.3 3.9,-8.4 1.6,-1.8 3.6,-3.7 6.2,-2.5 2.7,1.3 3.3,4.5 2.1,6.9 z"
           id="path642"
           style="fill:#ff9534" />
        <path
           class="st15"
           d="m 449.1,315.1 c 3,6.9 7.1,13.3 9.9,20.4 6.5,16.8 3.3,33.5 3.3,50.8 0,13.2 12.5,21.8 23.5,11.9 2,-1.8 3.5,-3.9 4.7,-6.3 0.7,-4.9 1.2,-9.6 1.2,-14.4 -0.2,0.8 -0.4,1.7 -0.6,2.5 -0.9,3.7 -2,7.4 -4.3,10.5 -2.3,3.1 -6,5.3 -9.7,4.9 -4.1,-0.5 -7.4,-4 -8.7,-7.9 -1.4,-3.9 -1.3,-8.2 -1.2,-12.3 0.3,-20.6 -0.9,-42 -7.4,-61.4 -3.1,-3.9 -6.1,-7.8 -9,-11.8 -3.3,-4.5 -6.6,-9.1 -9.8,-13.9 0.4,1.6 0.8,3.1 1.2,4.7 1.8,7.5 3.8,15.1 6.9,22.3 z"
           id="path644"
           style="fill:#812d08" />
      </g>
      <g
         id="g660">
        <path
           class="st18"
           d="m 348.6,194.2 c -2.6,-1.2 -4.6,0.6 -6.2,2.5 -1.8,2.1 -3.8,5.6 -3.9,8.4 0,0.1 0.1,0.1 0.2,0.1 1.5,-1.4 2.2,-3.2 3.3,-5 0.9,-1.5 2.5,-4.6 4.6,-3 1.3,1 1.6,3.5 1.1,4.9 -0.5,1.5 -2.1,2.9 -1.9,4.5 0,0.2 0.2,0.4 0.4,0.4 2.4,-0.1 3.6,-4 4.5,-5.9 1.2,-2.4 0.6,-5.6 -2.1,-6.9 z"
           id="path648"
           style="fill:#150e00" />
        <path
           class="st18"
           d="m 437.1,212.4 c 5.7,-3.9 11.3,-8.6 15,-14.5 0.3,-0.6 -0.5,-1.2 -0.9,-0.7 -2.6,3.1 -5.4,5.6 -8.4,7.7 -2.9,1.5 -5.3,3.3 -8.5,4.1 -3.1,0.9 -6.1,1.8 -9,3.3 -2.8,1.4 -5,2.9 -8.1,3.6 -3.4,0.7 -6.8,0.8 -10.1,1.3 -0.4,0.1 -0.3,0.6 0,0.7 3,0.9 5.9,0.7 9,0.3 0.4,-0.1 0.9,-0.1 1.3,-0.2 -1.9,1.8 -3.2,4 -2.9,7.2 0.1,0.8 1,1 1.4,0.4 5.2,-7.2 14.3,-8.5 21.2,-13.2 z"
           id="path650"
           style="fill:#150e00" />
        <path
           class="st18"
           d="m 497.7,441.6 c 1.2,-2.3 2.4,-4.7 3.5,-7.2 3.4,-7.6 7,-14.7 8.1,-23.1 0.8,-5.6 0.2,-11.1 -1.3,-16.5 2.6,-10.5 3.5,-22.2 -0.8,-32.3 -2,-4.7 -10,-13.9 -15.7,-9.8 -2.5,-7.3 -6.1,-14.2 -10.7,-20.2 -8.1,-10.7 -17.4,-20.5 -25.5,-31.2 -7.5,-9.9 -14,-20.4 -21.7,-30.2 0,-0.3 -0.1,-0.5 -0.1,-0.8 -1.6,-11.2 0.2,-23.9 -4.7,-34.4 8.6,-0.7 17.1,-4.2 23.7,-9.2 10.9,-8.3 16.2,-20.7 21.1,-33.1 2,-5.1 11.9,-33 -2.1,-31.3 -3.2,0.4 -6.4,2.1 -9.4,3.1 -4.2,1.4 -8.4,2.7 -12.6,3.8 -7.9,2.1 -15.9,3.8 -24,5.1 -9.5,1.5 -21,2.3 -30.5,6.4 -5.7,-5.4 -15.8,-6.3 -23.3,-7.1 -5.1,-0.5 -10.3,-0.7 -15.4,-0.7 -4.9,-3.5 -9.5,-6.8 -13.1,-11.8 -3.8,-5.4 -6.5,-11.5 -8.7,-17.7 -1.6,-4.5 -2.6,-10.1 -7.3,-12.4 -3.4,-1.7 -7.5,-1 -10.7,0.7 -9.3,4.8 -12.7,16.2 -14.4,25.7 -2.2,12 -2.9,25.6 0.5,37.5 -0.1,0.2 -0.2,0.4 -0.4,0.5 -4.7,-1.3 -9.3,-3 -14.1,-4.1 -4.3,-1 -16.7,-3.7 -20.1,1 -0.1,0.1 -0.2,0.2 -0.3,0.3 -3.1,4.2 -3.5,9 -2.5,13.7 -1.1,6.1 -0.7,12.6 1,18.6 1,3.5 3.4,12.6 7.9,13.7 -3.1,2.9 -4.6,9.4 -2.2,12.6 -2.3,0.1 -4.5,0.3 -6.8,0.8 -3.2,-6.2 -10.3,-9.3 -16.2,-12.2 -8,-4 -16.3,-6.8 -25.1,-8.2 -0.8,-0.1 -1.6,0.2 -1.8,1 -3.6,13.4 -2.7,31.2 4.8,43.1 -2.7,2.9 -5.1,5.9 -7.2,9 -7.8,11.7 -10.6,26.1 -5.3,39.4 2.7,6.7 6.8,12.6 11.3,18.2 2.6,3.3 5.4,6.5 8.2,9.7 0.5,0.5 1,1.1 1.5,1.6 -3.5,0.6 -6.5,3 -9.2,5.3 -2.3,2 -4.8,3.9 -7.1,6 -2.8,-3.3 -5.8,-6.4 -8.2,-10 -2.4,-3.6 -4.6,-7.4 -7.1,-11 -5.2,-7.3 -12,-12.9 -20.2,-16.4 -12.9,-5.5 -28.2,-4.8 -40.3,2 -23.9,-14.2 -54.3,-30 -54.7,-62 -0.1,-7.2 1.9,-14.2 6,-20.1 2.2,-3.2 4.9,-6 7.8,-8.6 1.2,-1.1 2.5,-2.1 3.7,-3.2 2.6,-2.1 4,-3.7 7.4,-3.4 2.9,0.3 4.1,1.2 6,3.3 1.6,1.8 3.2,4 3.3,6.5 0,3.2 -1.9,5.8 -0.5,9 2,4.6 7.4,5.8 11.9,4.6 4.5,-1.2 9.7,-4.1 10.6,-9.1 0.9,-5.6 -3.2,-10.8 -6.9,-14.5 -8.6,-8.6 -22.9,-16 -35.2,-11.5 -22.7,8.4 -34.5,37.4 -30.1,59.9 2.8,14.3 11.1,26.7 20.7,37.3 5.4,6 11.3,11.5 17.2,16.9 5.7,5.2 11.3,10.4 18.3,13.9 -9.8,40.6 -6.4,87.6 12.3,125.1 8.3,16.7 21.2,37.6 42.5,37.2 6.2,-0.1 15.5,-5.6 10.9,-13 -1.8,-2.8 -5,-3.6 -7.7,-5.1 -5.9,-3.2 -6.9,-11.5 -7.6,-17.7 -1.1,-9.5 -0.2,-18.8 1.3,-28.1 3,3.2 8,5.5 11.4,6.9 4.9,2 11.1,3.8 16.6,3 2,11.1 5.2,21.9 9.1,32.5 1.5,4.2 3.2,8.3 5,12.4 1.1,2.6 2.1,5.8 4.6,7.4 2.6,1.7 6.4,1.2 9.3,1.2 4,-0.1 8.3,-0.3 12.2,-1.3 4.4,-1.2 8.1,-4.6 6.1,-9.4 -0.9,-2.1 -2.7,-3.5 -4.1,-5.2 -3.7,-4.4 -3.2,-9.9 -3.2,-15.3 0.1,-9.5 0.9,-18.9 2.2,-28.3 2.6,-4.7 5.1,-9.4 7.8,-14 3.9,1.8 7.9,3.3 12,4.3 1.2,0.3 2.3,0.5 3.3,1.1 0.4,0.3 0.8,0.6 1.1,0.9 -3.5,1.2 -6.3,5.6 -7.8,8.6 -2.3,4.7 -2.9,9.8 0.3,14.2 7.1,9.8 20.1,5.1 25.5,-3.7 3.5,-5.6 6.3,-12.1 8.7,-18.3 2.3,-5.8 4,-12.2 2.6,-18.4 -2.6,-12 -15.2,-17.9 -26.4,-19.5 3.9,-6.8 7.1,-13.9 9.1,-21.4 2.1,-8.1 3.8,-15.6 7.7,-22.9 0,0 0,0 0,0 3.7,-1.7 7.1,-3.8 10.8,-5.5 -2.2,14 1.6,27.8 7,40.8 6.9,16.6 15,32.5 21.1,49.4 1.4,3.9 3.1,8 3.3,12.2 0.2,4.7 -1.6,8.4 -3.8,12.5 -2.4,4.5 -5,9.8 -1.9,14.7 2.7,4.3 8.3,5.6 13,6.2 6.9,0.9 14.8,1.7 21.6,-0.2 7.5,-2.1 9.5,-7.7 10.9,-14.7 0.7,-3.6 1.6,-7.3 2.3,-11 3,3.2 7.3,5.1 11.5,6.5 2.8,0.9 6.9,2.2 10.3,1.8 -1.5,2.6 -2.8,5.1 -2.8,8.1 0,5.2 4,9.6 8.6,11.5 5.8,2.5 12.6,1.6 18.6,0.8 5.8,-0.8 11.8,-2.3 16.5,-6 4.3,-3.5 6.1,-8.1 6.9,-13.4 13,-1 27.6,-3.7 40.2,0.1 9.8,3 21.3,8.2 30.6,1.1 7,-5.4 8.5,-15.9 2,-22.3 -6.7,-5.7 -16.8,-5.8 -22.5,-12.7 z m 8.1,-68.7 c 0.7,5.2 0.3,10.2 0,15.3 -2.8,-7.2 -6.9,-14.1 -10.9,-20.4 -0.4,-4.2 -1.3,-8.3 -2.5,-12.3 8.8,-1.6 12.5,10.4 13.4,17.4 z m -171,-216.7 c 0.7,1.4 1.4,2.8 2.2,4.2 2.8,4.7 6.6,9.6 11.3,12.9 -1.8,0.1 -3.5,0.2 -5.3,0.2 -3.8,0.2 -7.4,0.5 -10.8,1.2 1.6,-6 2.7,-12.3 2.6,-18.5 z m -30,4.9 c 1.6,-9.3 4.7,-24.5 15.8,-26.6 7.5,-1.5 8.6,7.5 10.5,12.8 0.2,0.6 0.5,1.3 0.7,1.9 1.5,8.6 1.4,17.4 -2.2,26 0,0 0,0.1 0,0.1 -3.7,0.9 -7.3,2.3 -10.8,4.5 -0.9,0.6 -1.9,1.2 -2.8,1.9 -0.5,-3.6 -1.9,-7.1 -2.2,-10.9 -0.4,-4.1 -0.5,-8.4 -0.3,-12.6 0,-0.2 -0.3,-0.2 -0.3,0 -1.3,7.8 -2.4,17.6 0.6,25.1 -3.3,2.6 -6.4,5.7 -9.1,9.1 -1,-10.6 -1.7,-20.7 0.1,-31.3 z m -35.3,34.4 c 3.1,-1.4 6.2,-1.9 9.4,-1.9 4.2,1.1 8.2,3.3 11.4,6.2 2,1.9 4.5,4 4.4,6.8 -1.8,0 -3.4,0.5 -5.3,0.5 -2.5,-0.1 -5,-1.2 -7.2,-2.5 -2.6,-1.6 -4.9,-4.4 -7.9,-5.3 -2.3,-0.7 -4.6,-0.3 -6.1,1.2 0.3,-1.7 0.6,-3.3 1.3,-5 z m -0.9,7.4 c 2.6,-6.9 14.3,3.8 18.2,5.6 2.3,1 4.6,2.1 6.8,1.6 -1.2,2.1 -3.2,4.3 -4.4,5.8 -1.8,2.1 -5.2,6.5 -8.2,6.7 -2.1,0.1 -5.5,-2.3 -6.7,-3.9 -0.8,-1.1 -1.5,-2.5 -2.1,-3.7 -2.1,-3.9 -3.5,-7.7 -3.8,-11.7 0,-0.1 0.1,-0.2 0.2,-0.4 z m 3.3,28.2 c -1.8,-2.8 -3.4,-5.6 -4.4,-8.9 -1.4,-4.3 -1.8,-8.6 -1.6,-13 1,3.1 2.5,6.2 4.1,8.9 1.9,3.3 4,6.9 8.1,7.5 0.1,0 0.2,0 0.3,0 0,1.2 0.2,2.4 0.3,3 0.1,1.3 0.4,3.1 1,4.7 -1.6,0 -3.2,0.6 -4.3,1.7 -1.2,-1.2 -2.5,-2.4 -3.5,-3.9 z m 5.4,6.9 c 0,-0.1 0.1,-0.1 0.1,-0.2 0.4,-0.2 0.8,-0.4 1.3,-0.5 0.8,-0.2 1.6,-0.1 2.5,0.1 0.1,0 0.2,0 0.4,0 -0.6,0.6 -1.3,1.3 -1.8,2 -1.1,1.4 -1.4,2.5 -1.8,4.2 -0.1,0.3 0.3,0.4 0.4,0.2 0.4,-0.6 1,-1.1 1.5,-1.6 0.5,-0.5 0.9,-1.1 1.3,-1.7 1,-1.1 2,-2.1 3.4,-2.6 0.2,-0.1 0.4,-0.2 0.5,-0.3 2.5,1 5,2.1 7.3,3.6 2.3,1.5 4,3.5 5.8,5.3 -3.7,0.2 -7.9,1.8 -10.8,2.7 -3.4,1 -8.4,3.3 -11.9,1.9 -6.4,-2.6 -0.3,-10.7 1.8,-13.1 z m -32.4,5.1 c 5.7,2.9 11.1,5.5 15.2,10.3 -3,0.9 -5.8,2.1 -8.6,3.6 -2.4,1.2 -4.8,2.6 -7.1,4.1 -0.5,-9.5 -7.6,-19.4 -15.7,-25.2 5.7,1.7 10.9,4.5 16.2,7.2 z M 224,253.7 c -0.6,-6.3 -0.2,-12.4 0.6,-18.7 4.8,2.9 8.7,6.6 11.9,11.3 3.2,4.8 4.4,10.3 7.2,15.1 0,0 0,0 0,0.1 -5.4,3.5 -10.6,7.7 -15.1,12.3 -1.8,-6.6 -3.9,-13.1 -4.6,-20.1 z m 72.3,168.1 c 5.5,8.8 0.5,19.7 -3.3,28.1 -3.1,6.9 -8.5,20 -17.8,18 0,0 0,0 0,-0.1 0.3,-0.5 0.5,-1.1 0.4,-1.7 -0.1,-1 -1.6,-1.4 -1.9,-0.3 -0.1,0.3 -0.3,0.6 -0.5,0.8 -0.1,0 -0.2,0 -0.3,0.1 0,0 0,0 0,0 -0.2,0 -0.3,0.1 -0.5,0.2 0,0 0,0 -0.1,0 -1.9,-1 -3.1,-2.3 -3.8,-3.7 0.6,-0.1 1.1,-0.3 1.7,-0.4 0.3,-0.1 0.5,-0.1 0.8,-0.3 0.2,-0.1 0.5,-0.4 0.7,-0.4 0.4,-0.1 0.4,-0.6 0,-0.7 -0.2,-0.1 -0.4,-0.3 -0.6,-0.4 -0.3,-0.2 -0.6,-0.2 -0.9,-0.3 -0.6,-0.1 -1.1,-0.3 -1.7,-0.4 -0.2,-0.1 -0.5,-0.2 -0.8,-0.2 -0.1,-2.3 0.6,-4.7 1.8,-7 1.3,-2.4 3.3,-4.2 5,-6.2 0.1,0.4 0.1,0.8 0.2,1.2 0.3,2.6 0.1,5.1 -0.1,7.7 -0.1,0.9 1.3,1.1 1.6,0.2 0.8,-3.1 0.9,-6.2 0.7,-9.4 -0.1,-2 0.3,-4.9 -1,-6.6 -1.5,-1.9 -4.3,-2.1 -6.4,-2.8 -3.4,-1 -6.8,-2.3 -10,-3.8 0.6,-1 1.2,-2 1.8,-3 4.5,-7 9.2,-13.8 13.5,-20.9 7.8,2.8 16.8,4.7 21.5,12.3 z m -5.4,-62.4 c -0.6,0.6 -0.7,1.2 -0.5,1.8 -3.8,4.7 -5.4,11.2 -6.8,17.1 -2.3,9.6 -5.4,18.4 -10.4,27 -6.8,11.9 -16.6,23.1 -22.2,35.9 0.3,-1.2 0.6,-2.3 0.9,-3.5 1.3,-4.7 3.3,-9.4 4,-14.3 0,-0.2 -0.2,-0.4 -0.4,-0.2 -4.1,6 -5.7,14.1 -7.5,21 -1.8,6.8 -3.2,13.5 -3.8,20.4 -0.7,7.6 -0.8,15.4 0,23 0.3,2.5 0.7,4.8 2.1,6.9 1.1,1.7 4.1,3.6 4.7,5.5 1,3.1 -1,4.6 -3.5,5.3 -0.1,-0.3 -0.3,-0.6 -0.4,-1 -0.2,-0.6 -0.4,-1.2 -0.7,-1.7 -0.7,-1.2 -1.5,-1.7 -2.6,-2.6 -0.4,-0.3 -1,0.2 -0.6,0.6 0.7,0.6 1.2,1.8 1.6,2.7 0.2,0.4 0.5,1 0.5,1.5 0,0.3 0,0.6 -0.1,0.9 -1.8,0.3 -3.6,0.3 -4.7,0.4 -0.9,0.1 -2.1,0.2 -3.3,0.3 -0.2,-0.6 -0.3,-1.2 -0.5,-1.7 -0.1,-0.3 -0.2,-0.6 -0.3,-0.9 -0.2,-0.4 -0.5,-0.7 -0.7,-1.2 -0.1,-0.3 -0.7,-0.2 -0.6,0.2 0,0.5 -0.1,0.9 -0.1,1.4 0,0.3 0.1,0.6 0.1,0.9 0.1,0.5 0.2,0.9 0.3,1.4 -3,0.1 -6,-0.2 -7.7,-2 -2.3,-2.4 -4,-8.7 -5.2,-11.7 -1.5,-3.7 -2.8,-7.4 -4.1,-11.2 -4.8,-14.5 -7.8,-29.6 -10.8,-44.5 -0.2,-1 -1.7,-0.7 -1.7,0.2 0.1,5.4 0.6,10.7 1.4,16.1 -4.6,-0.9 -9.3,-1.2 -13.9,-2.9 -2.8,-1.1 -5.6,-2.4 -8.3,-3.9 -1.6,-0.9 -3,-2.1 -4.7,-2.9 2.8,-16.1 7,-32 5.9,-48.4 0,-0.6 -1,-0.6 -1,0 0.7,16.3 -3.8,32 -7.2,47.9 -0.3,0.1 -0.5,0.4 -0.4,0.8 0,0.1 0.1,0.3 0.2,0.4 -0.9,4.4 -1.7,8.7 -2.2,13.1 -1.2,9.5 -1,19.5 1.8,28.8 0.9,3 1.9,5.9 4.4,8 2.4,2 7.4,2.8 8.9,5.7 1.3,2.6 0.2,4.2 -1.6,5.2 -0.1,-0.3 -0.3,-0.6 -0.5,-1 -0.5,-0.7 -0.9,-1.2 -1.4,-2 -0.8,-1.4 -2,-2.6 -3.6,-3 -0.3,-0.1 -0.5,0.4 -0.2,0.6 1.2,0.8 2.3,1.6 2.9,2.9 0.3,0.6 0.4,1.1 0.1,1.7 -0.3,0.6 -0.4,1.1 -0.4,1.7 -1.8,0.4 -3.5,0.4 -4.5,0.4 -0.7,0 -1.5,-0.1 -2.2,-0.3 -0.1,0 -0.1,-0.1 -0.1,-0.1 0,0 0,0 -0.1,0 -0.5,-1.2 -1,-2.2 -1.9,-3.1 -0.3,-0.4 -0.8,0.1 -0.6,0.5 0.3,0.7 0.7,1.6 0.8,2.4 -1,-0.2 -2,-0.5 -3,-0.8 -4.9,-1.6 -9.4,-4.4 -13.4,-7.7 -7.7,-6.5 -12.6,-15.7 -16.8,-24.7 -8.5,-18.6 -13.8,-38.6 -15.7,-59 -2.1,-22.6 0.2,-44.8 4.1,-67.1 0.4,-2 -2.3,-3.1 -3.3,-1.6 -11.5,-5.6 -21.2,-15.6 -30,-24.6 -9.3,-9.5 -18,-20.4 -22.4,-33.1 -4.3,-12.5 -3.7,-26.1 1.7,-38.2 5.1,-11.3 16.3,-25 29.6,-25.9 6.6,-0.4 13.5,2.4 19,5.9 5.6,3.6 19.4,15.1 8.9,20.9 -4.5,2.5 -10.5,3.2 -10.5,-4.1 0,-2.6 0.4,-4.4 -0.6,-7 -1.7,-3.9 -5.6,-8.8 -9.5,-10.8 -4.7,-2.5 -8.8,1.8 -12.3,4.5 -4.6,3.5 -8.8,7.4 -12.2,12.1 -6.6,9.1 -8.3,20.5 -6.2,31.4 5.3,27.5 30.9,44.1 54.4,55.6 -2.2,1.6 -4.3,3.4 -6.2,5.4 -0.6,0.7 0.2,1.9 1,1.3 15.4,-10.9 35,-14.4 52,-4.6 7.7,4.4 12.8,10.8 17.6,18.1 3.4,5.2 7.1,11.7 12.7,14.8 -1.6,1.6 -3,3.2 -4.2,5.1 -0.2,0.3 0.2,0.8 0.6,0.6 2.1,-1.5 4,-3.2 6,-5 0.3,-0.1 0.5,-0.3 0.6,-0.5 1.9,-1.7 3.8,-3.3 5.9,-4.7 4,-2.7 8.5,-3.8 12.8,-5.8 1.9,1.8 3.9,3.6 5.3,5.7 0.1,0.1 0.3,0 0.2,-0.1 -2,-3.1 -2.9,-6.5 -5.1,-9.5 -1.7,-2.3 -3.6,-4.4 -5.5,-6.6 -4.5,-5.2 -8.9,-10.5 -12.4,-16.4 -7.6,-13 -7.6,-27.2 -0.1,-40.3 6.5,-11.2 17.2,-20.3 28.1,-27 4.5,-2.8 9.4,-5 14.4,-6.4 0.4,0 0.9,-0.1 1.2,-0.3 6.5,-1.6 13.2,-1.6 19.6,0.6 2.5,4 6.9,7.6 10.1,10.5 5.2,4.8 10.9,9.2 16.3,13.9 0.5,0.5 1.1,0.9 1.6,1.4 -1.5,-0.4 -3.1,-0.6 -4.7,-0.3 -0.4,0.1 -0.3,0.6 0,0.7 1.8,0.5 3.6,0.6 5.4,1.1 1,0.3 1.7,0.7 2.4,1.1 1,0.9 2,1.8 3,2.7 0.1,0.1 0.2,0.2 0.4,0.4 0.2,0.2 0.5,0.5 0.8,0.7 0.4,0.3 0.7,0.7 1.1,1 0.4,3 1.8,6 2.8,8.9 1.3,3.9 2.6,7.8 3.8,11.8 2.3,7.8 4,16.7 0.5,24.5 -6.4,15.4 -25.6,14.6 -36.4,24.9 z m 222,101.6 c 2.9,1.5 5.4,4.3 6.3,7.4 0,0.1 0,0.1 0.1,0.1 -0.8,2.2 -2.4,4.2 -4.4,5.6 -0.7,-1.2 -1.8,-2.1 -2.8,-3.1 -1.3,-1.3 -2.6,-2.4 -4.3,-3.2 -0.5,-0.2 -0.8,0.4 -0.4,0.7 1.5,0.9 2.9,2 3.9,3.5 0.4,0.6 0.8,1.3 1,2.1 0.1,0.5 0.1,1 0.3,1.5 -0.5,0.2 -0.9,0.4 -1.4,0.5 -9.9,3 -20.2,-4.4 -29.9,-5.7 -10.9,-1.4 -22.7,0.5 -33.7,1.1 0.4,-3.1 0.9,-6.2 2.4,-9.1 1.8,-3.6 4.9,-6.6 7.7,-9.4 10.5,-10.8 23.1,-23.6 25.9,-39.1 0.1,-0.4 -0.5,-0.7 -0.7,-0.3 -3.5,7.9 -7.3,15.3 -12.6,22 -4.8,6 -10.5,10.8 -16,16.1 -4.9,4.7 -9.2,10 -10.5,16.8 -0.8,4.2 -0.7,8.8 -2.6,12.7 -1.8,3.7 -5.1,6 -8.8,7.4 -2.7,1.1 -5.9,2 -9.2,2.6 0,-0.3 0,-0.5 -0.2,-0.9 -1.5,-3.4 -1,-6.7 1,-9.7 0.5,-0.8 -0.7,-1.7 -1.3,-1 -3,3.1 -4.2,7.9 -2.7,12.1 0,0 0,0 0,0 -4.1,0.4 -8.1,0.3 -11.5,-0.6 0,0 -0.1,0 -0.1,0 -0.1,-0.2 -0.2,-0.4 -0.4,-0.6 -2.9,-3 -0.8,-8.2 1,-11.2 0.2,-0.4 -0.3,-0.9 -0.7,-0.7 -2.6,1.8 -4.1,4.5 -4.6,7.5 -0.1,0.6 -0.2,1.3 -0.2,2 -2.1,-2.2 -2.8,-5.4 -1.1,-8.8 1.6,-3.2 3.5,-5.9 4.6,-9.3 5.4,-16.7 -10.6,-31 -5.1,-47.4 0.2,-0.7 -0.9,-1.2 -1.3,-0.5 -6.8,13.3 4.2,27.1 3.1,40.7 -0.3,2.9 -1.1,5.6 -2.2,8.2 -3.2,-1.6 -7.7,-0.9 -11.2,-1.9 -4.3,-1.2 -8,-3.5 -12,-5.2 1,-5.2 1.9,-10.3 2.3,-15.5 0,-0.4 -0.5,-0.4 -0.7,-0.1 -3.7,9.1 -5.6,19.1 -8.1,28.5 -1.3,4.9 -2.5,9.7 -7.7,11.5 -3.9,1.3 -8.4,1.1 -12.6,1 0,0 0,0 0,-0.1 -1.7,-2.8 -2.3,-5.1 -1.6,-8.4 0.1,-0.5 -0.5,-0.8 -0.8,-0.4 -1.7,2.3 -2.1,5.8 -1.1,8.6 -2.6,-0.1 -5.5,-0.4 -8.1,-1 -0.8,-1.6 -1.7,-3.7 -1.8,-5.4 -0.1,-2.1 1,-4.5 2.2,-6.2 0.2,-0.3 -0.3,-0.7 -0.5,-0.4 -2.8,2.5 -4.3,6.6 -4,10.5 -3.2,-1.8 -4.7,-4.9 -2.2,-10.3 3.2,-6.6 6.6,-11.4 5.5,-19.1 -1.2,-9 -5.3,-17.9 -8.7,-26.2 -3.2,-7.8 -6.7,-15.4 -10.2,-23 -7.7,-16.5 -14.9,-33.7 -13.3,-52.2 3.6,-1.5 7.2,-3 10.6,-4.8 6.4,-3.5 12.2,-8.3 14.9,-15.3 3,-7.6 1.9,-16.1 -0.3,-23.8 -1.2,-4.5 -2.9,-8.9 -4.7,-13.2 -0.5,-1.2 -1,-2.4 -1.5,-3.7 5,5.3 9.2,11.3 11.5,18.2 0.2,0.6 1.1,0.3 0.9,-0.2 -3.3,-12.9 -11,-23.8 -20.9,-32.5 -5.5,-4.9 -11.4,-9.3 -17,-14.1 -2.8,-2.4 -5.6,-4.8 -8.2,-7.4 -0.3,-0.3 -0.6,-0.6 -0.9,-0.9 0,-0.4 -0.1,-0.8 -0.5,-1.1 -0.4,-0.3 -0.8,-0.6 -1.2,-0.8 -0.9,-1 -1.9,-2.1 -2.9,-2.9 3,-0.5 5.9,-1.2 8.9,-1.7 2.7,-0.5 5.4,-0.1 7.8,-1.2 4.7,2 11.3,0.8 16,0.5 6.7,-0.4 11.8,-0.9 17.3,-5.1 0.5,-0.4 1.1,-0.9 1.9,-1.5 0,0 0,0 0.1,0 8.2,-2.6 16,-5.5 24.1,-8.6 1.2,-0.5 2.1,-1.9 1.3,-3.1 -9.8,-13.9 -27,12.2 -35.7,15.1 -4.9,1.6 -9.8,0.3 -14.8,0.1 -5.1,-0.2 -8.7,-0.2 -12.5,-4.1 -4.8,-4.8 -11,-8.8 -17.9,-9.2 -0.6,-1.2 -1.4,-2.4 -1.9,-3.7 -0.4,-1.2 -0.8,-2.5 -1,-3.7 0,-0.1 0,-0.6 0,-1.1 3.1,-0.2 5.9,-2.1 8.1,-4.2 3.5,-3.2 6.6,-7.2 8.9,-11.4 1.7,-3.1 1.4,-4.8 -0.2,-7.9 -1.4,-2.5 -3.1,-4.7 -5.2,-6.4 9.7,2.7 19.6,6.5 28.9,2.3 0.2,-0.1 0.1,-0.4 -0.1,-0.3 -2.9,0.1 -5.7,0 -8.4,-0.3 0,0 0.1,-0.1 0.1,-0.1 0.5,-1.3 1.4,-4.2 3.1,-4.3 1.3,0 1.6,1.1 2.3,1.8 0.1,0.3 0.2,0.6 0.3,0.9 0.4,0.6 1.2,0.6 1.6,0 0.2,-0.4 0.2,-0.5 0.4,-0.9 0,0 0.3,-0.6 0.3,-0.8 0.2,-0.8 -0.1,-1.6 -0.5,-2.3 -0.8,-1.3 -2.4,-2.2 -4,-1.8 -3.4,0.8 -4.5,3.9 -5,7 0,0.1 0,0.3 0,0.4 -1.8,-0.2 -3.6,-0.6 -5.5,-1 0,0 0,-0.1 0,-0.1 0,-0.1 0,-0.3 0,-0.4 4.9,-4.8 9.1,-10.2 15.2,-13.6 7.9,-4.5 17.5,-4.1 26.3,-4.2 8.1,-0.2 16.3,-0.3 24.4,0.5 4.4,0.4 8.7,1.1 12.9,2.2 2.4,0.6 4.9,1.5 7.3,2 -2.7,1.5 -5.2,3.4 -7.3,5.8 -0.3,0.3 0.1,0.8 0.5,0.6 6.7,-3.6 13.2,-6.4 20.7,-7.7 7.2,-1.2 14.4,-1.9 21.6,-3 5.7,-0.8 11.3,-2 17,-3.3 -3.7,2.2 -7.3,4.5 -10.8,7.1 -5.8,4.2 -11.7,8.2 -17.7,12 -6.8,4.3 -13.8,5.9 -21.7,7.1 -0.3,0 -0.3,0.5 0,0.5 13,2.2 27.3,-5.4 37.7,-12.6 6.1,-4.2 11.8,-9 17.9,-13.2 2.2,-1.6 4.6,-2.9 7,-4.2 1.9,-0.6 3.7,-1.1 5.6,-1.7 4,-1.3 12.8,-6.3 13.3,1.2 0.6,8.6 -3.5,17.1 -6.8,24.8 -3,7.1 -6.3,14.3 -11.3,20.3 -9.7,11.8 -23.8,16.1 -38.5,16.6 -1.3,0 -1.7,2 -0.3,2.3 2.5,0.6 5.1,0.9 7.7,0.9 3.7,11.3 1,23.6 4,35.1 1.7,6.2 4.3,12.2 6.6,18.2 2.2,5.9 3.3,11.6 4.1,17.8 0.1,0.8 1.3,0.7 1.5,0 1.8,-8.8 -2.3,-17.6 -5.4,-26.3 4.3,7.3 9.4,14.2 14.3,21 7,9.6 14.5,18.7 22,27.9 7.6,9.3 13.6,19 16.8,30.7 3.3,12.1 2.4,23.6 0.2,35.8 -0.1,0.5 0.6,0.9 0.8,0.4 3.1,-6.9 4.6,-14.2 4.7,-21.7 5.6,12.2 12,24.4 9.3,38.1 -1.6,8.3 -4.7,16.4 -8,24.1 -1.5,3.5 -2.2,7 -3.4,10.6 -1.4,4.3 -3.7,8.4 -5.4,12.7 0,0.1 0.1,0.1 0.1,0.1 2.3,-4.7 4.2,-9.6 6.9,-14.1 0.5,-0.9 1,-1.8 1.5,-2.7 2.4,5 8.1,7 13.1,9.3 3.7,1.7 7.6,3.6 9.4,7.5 0.8,1.6 1,3.2 1,4.8 -0.5,-0.9 -1.1,-1.7 -1.8,-2.5 -1.4,-1.5 -3,-2.1 -4.9,-2.7 -0.7,-0.5 -1,0.1 -0.6,0.4 z M 356.7,232.8 c 0,-0.1 0,-0.2 0,-0.3 0.2,0 0.3,0.1 0.5,0.1 -0.1,0 -0.3,0.1 -0.5,0.2 z"
           id="path652"
           style="fill:#150e00" />
        <path
           class="st18"
           d="m 404.2,238.2 c -0.3,-0.8 -1.4,-0.5 -1.2,0.3 1.7,5.9 3.9,11.1 4.5,17.3 0.5,4.9 1,10.5 -0.2,15.3 -2.2,8.9 -14.3,11.3 -20.1,17.7 -0.3,0.4 0.1,1 0.5,0.7 2.8,-1.7 5.1,-3.5 8.2,-4.6 2.6,-1 5.6,-1.3 8.1,-2.5 3.7,-1.7 5.8,-5.8 6.6,-9.7 1,-4.7 0.1,-9.7 -1,-14.3 -1.6,-6.6 -3.2,-13.7 -5.4,-20.2 z"
           id="path654"
           style="fill:#150e00" />
        <path
           class="st18"
           d="m 295.6,277.9 c 0.4,0.1 0.8,-0.4 0.5,-0.7 -5.9,-7.8 -19.1,-8.6 -27.3,-4.2 -0.3,0.2 -0.2,0.8 0.2,0.7 5,-0.3 9.1,-0.3 14.1,0.7 4.3,0.8 8.2,2.5 12.5,3.5 z"
           id="path656"
           style="fill:#150e00" />
        <path
           class="st18"
           d="m 316.7,303.3 c -3.5,-1.2 -7.8,-1.6 -11.7,-1.2 -0.3,-1.2 -0.2,-3.4 -0.2,-4.6 0.2,0 0.4,-0.1 0.6,-0.2 2.6,-2 5.9,-6.1 2.8,-9.2 -1.2,-1.1 -2.8,-1.5 -4.4,-1.4 -0.7,0 -1.7,0.1 -2.6,0.3 0,0 0,0 0,0 -0.6,-0.1 -1.2,0.1 -1.6,0.6 -0.4,0.2 -0.7,0.5 -0.9,0.9 -0.2,0.3 0,0.6 0.3,0.7 0.2,0.1 0.4,0.1 0.5,0.1 0.8,2.9 2.3,5.3 4.2,7.7 0.1,0.9 0.5,5 0.5,5 -0.5,0.5 -7,-1.7 -7.6,-1.9 -6.5,-2.1 -11,-4.9 -15.8,-9.6 -0.2,-0.2 -0.6,0.1 -0.5,0.4 2.7,4.7 7.1,8.3 11.7,11.1 2.5,1.5 8.2,3.8 11.7,2.9 4.2,1.8 9.5,1.6 13.4,-0.7 0.1,-0.2 0,-0.8 -0.4,-0.9 z m -13.6,-12.1 c -0.1,-0.2 -0.2,-0.5 -0.3,-0.7 0.1,0 0.2,0 0.3,0.1 0.1,0.1 0,0.3 0,0.6 z"
           id="path658"
           style="fill:#150e00" />
      </g>
      <g
         id="g676">
        <g
           id="g674">
          <g
             id="g664">
            <path
               class="st10"
               d="m 289.6,415.3 c -1.8,-1.1 -3.7,-2 -5.7,-2.8 -2.6,5.2 -5.7,10.2 -9.2,15 5.7,-3 10.8,-7.2 14.9,-12.2 z"
               id="path662"
               style="fill:#9b1616" />
          </g>
          <g
             id="g668">
            <path
               class="st17"
               d="m 289.1,443 c -2.6,-2.1 -7.9,-0.6 -12.2,1.2 0,0.7 0,1.5 0,2.1 0.2,3.2 0.1,6.3 -0.7,9.4 -0.2,0.9 -1.6,0.7 -1.6,-0.2 0.1,-2.6 0.4,-5.1 0.1,-7.7 0,-0.4 -0.1,-0.8 -0.2,-1.2 -1.7,2 -3.7,3.8 -5,6.2 -1.2,2.2 -1.9,4.7 -1.8,7 0.3,0 0.5,0.1 0.8,0.2 0.6,0.1 1.1,0.3 1.7,0.4 0.3,0.1 0.6,0.2 0.9,0.3 0.2,0.1 0.4,0.3 0.6,0.4 0.4,0.1 0.4,0.6 0,0.7 -0.2,0.1 -0.5,0.3 -0.7,0.4 -0.3,0.1 -0.5,0.2 -0.8,0.3 -0.6,0.1 -1.1,0.3 -1.7,0.4 0.7,1.5 1.9,2.8 3.8,3.7 0,0 0,0 0.1,0 0.2,-0.1 0.3,-0.1 0.5,-0.2 0,0 0,0 0,0 0.1,0 0.2,-0.1 0.3,-0.1 0.2,-0.2 0.4,-0.4 0.5,-0.8 0.3,-1.1 1.8,-0.8 1.9,0.3 0,0.6 -0.1,1.2 -0.4,1.7 0,0 0,0 0,0.1 6,1.3 10.4,-3.7 13.5,-9.2 2.8,-5.8 4.3,-12.3 0.4,-15.4 z"
               id="path666"
               style="fill:#ffd0ac" />
          </g>
          <g
             id="g672">
            <path
               class="st10"
               d="m 296.3,421.8 c -0.1,-0.2 -0.2,-0.4 -0.4,-0.5 -3.7,4.8 -8.2,8.9 -13.3,12.2 5.4,0.3 11,0.5 16.1,-1 0.3,-3.7 -0.3,-7.4 -2.4,-10.7 z"
               id="path670"
               style="fill:#9b1616" />
          </g>
        </g>
      </g>
      <g
         id="g690">
        <path
           class="st17"
           d="m 290.7,289 c 0,0 -0.7,-0.5 -2,-1.3 -0.6,-0.4 -1.4,-0.9 -2.3,-1.4 -0.9,-0.5 -1.9,-1.1 -3.1,-1.8 -1.1,-0.6 -2.4,-1.3 -3.7,-2 -1.3,-0.7 -2.7,-1.4 -4.2,-2.1 -1.5,-0.7 -3,-1.4 -4.6,-2 -1.6,-0.7 -3.2,-1.3 -4.8,-1.9 -1.6,-0.5 -3.3,-1.1 -4.9,-1.6 -1.6,-0.5 -3.3,-0.8 -4.8,-1.2 -0.8,-0.2 -1.6,-0.3 -2.3,-0.4 -0.8,-0.1 -1.5,-0.3 -2.3,-0.4 -1.5,-0.2 -2.9,-0.4 -4.2,-0.4 -0.6,0 -1.3,-0.1 -1.9,-0.1 -0.6,0 -1.2,0 -1.7,0 -1.1,0 -2,0 -2.7,0.1 -1.5,0.1 -2.4,0.2 -2.4,0.2 0,0 0.9,-0.1 2.4,-0.2 0.8,-0.1 1.7,-0.1 2.7,-0.1 0.5,0 1.1,0 1.7,0 0.6,0 1.2,0 1.9,0.1 1.3,0 2.7,0.2 4.2,0.3 0.7,0.1 1.5,0.2 2.3,0.3 0.8,0.1 1.6,0.2 2.4,0.4 1.6,0.3 3.2,0.7 4.9,1.1 1.7,0.4 3.3,1 5,1.5 1.6,0.6 3.3,1.1 4.9,1.8 1.6,0.6 3.1,1.3 4.6,2 1.5,0.7 2.9,1.3 4.2,2 1.3,0.7 2.6,1.3 3.7,1.9 1.2,0.6 2.2,1.2 3.1,1.7 0.9,0.5 1.7,1 2.4,1.4 1.3,0.8 2,1.2 2,1.2 z"
           id="path678"
           style="fill:#ffd0ac" />
        <path
           class="st17"
           d="m 284.9,288.6 c 0,0 -0.7,-0.2 -2,-0.6 -1.3,-0.4 -3.2,-0.9 -5.4,-1.5 -1.1,-0.3 -2.3,-0.6 -3.6,-0.9 -1.3,-0.3 -2.7,-0.5 -4.1,-0.8 -1.4,-0.2 -2.9,-0.5 -4.4,-0.7 -1.5,-0.2 -3.1,-0.3 -4.6,-0.5 -1.5,-0.1 -3.1,-0.2 -4.6,-0.2 -1.5,0 -3,0 -4.5,0.1 -1.4,0.1 -2.9,0.2 -4.2,0.4 -1.3,0.2 -2.6,0.3 -3.7,0.6 -0.6,0.1 -1.1,0.2 -1.6,0.3 -0.5,0.1 -1,0.2 -1.5,0.4 -0.9,0.2 -1.7,0.4 -2.4,0.6 -1.3,0.4 -2,0.6 -2,0.6 0,0 0.7,-0.2 2,-0.7 0.6,-0.2 1.4,-0.4 2.4,-0.7 0.5,-0.1 0.9,-0.3 1.5,-0.4 0.5,-0.1 1.1,-0.2 1.6,-0.3 1.1,-0.3 2.4,-0.4 3.7,-0.6 1.3,-0.2 2.7,-0.3 4.2,-0.4 1.5,-0.1 3,-0.2 4.5,-0.2 1.5,0 3.1,0.1 4.6,0.1 1.6,0.1 3.1,0.2 4.6,0.4 1.5,0.1 3,0.4 4.5,0.6 1.4,0.3 2.8,0.5 4.1,0.7 1.3,0.3 2.6,0.5 3.7,0.8 2.3,0.5 4.2,1 5.5,1.4 1.3,0.4 2.1,0.6 2.1,0.6 z"
           id="path680"
           style="fill:#ffd0ac" />
        <path
           class="st17"
           d="m 276.2,289.4 c 0,0 -0.6,-0.1 -1.6,-0.1 -0.5,-0.1 -1.1,-0.1 -1.9,-0.1 -0.7,0 -1.5,-0.1 -2.4,-0.1 -0.9,0 -1.8,0 -2.9,0 -1,0 -2.1,0.1 -3.2,0.2 -1.1,0.1 -2.2,0.2 -3.4,0.4 -1.2,0.1 -2.3,0.3 -3.5,0.5 -1.2,0.2 -2.3,0.5 -3.4,0.7 -1.1,0.3 -2.2,0.6 -3.3,0.9 -1.1,0.3 -2.1,0.6 -3,1 -1,0.3 -1.9,0.7 -2.7,1 -0.8,0.3 -1.6,0.6 -2.2,0.9 -0.7,0.3 -1.2,0.5 -1.7,0.8 -0.9,0.5 -1.5,0.7 -1.5,0.7 0,0 0.5,-0.3 1.4,-0.8 0.5,-0.2 1,-0.5 1.7,-0.8 0.7,-0.3 1.4,-0.7 2.2,-1 0.8,-0.4 1.7,-0.7 2.7,-1.1 0.9,-0.4 2,-0.7 3,-1.1 1.1,-0.3 2.2,-0.7 3.3,-1 1.1,-0.3 2.3,-0.6 3.4,-0.8 1.2,-0.2 2.3,-0.5 3.5,-0.6 1.2,-0.2 2.3,-0.3 3.4,-0.5 1.1,-0.1 2.2,-0.2 3.2,-0.3 1,-0.1 2,-0.1 2.9,-0.1 0.9,0 1.7,0 2.4,0 0.7,0 1.4,0 1.9,0.1 1,0.1 1.6,0.1 1.6,0.1 z"
           id="path682"
           style="fill:#ffd0ac" />
        <path
           class="st17"
           d="m 315.3,298.6 c 0,0 1.9,0.3 4.7,0.8 2.8,0.5 6.6,1.4 10.1,2.9 1.8,0.8 3.4,1.7 4.9,2.7 1.5,1 2.7,2.1 3.7,3.2 1,1.1 1.7,2 2.1,2.7 0.4,0.7 0.7,1.1 0.7,1.1 0,0 -0.2,-0.4 -0.7,-1.1 -0.5,-0.7 -1.2,-1.6 -2.2,-2.6 -1,-1 -2.3,-2.1 -3.8,-3 -1.5,-1 -3.2,-1.8 -4.9,-2.5 -3.5,-1.4 -7.2,-2.1 -10,-2.6 -2.8,-0.4 -4.7,-0.6 -4.7,-0.6 z"
           id="path684"
           style="fill:#ffd0ac" />
        <path
           class="st17"
           d="m 319.1,302.1 c 0,0 0.5,0.2 1.3,0.5 0.4,0.2 0.9,0.4 1.5,0.6 0.6,0.3 1.2,0.5 1.9,0.9 0.7,0.3 1.4,0.7 2.1,1.2 0.8,0.4 1.5,1 2.3,1.5 0.8,0.6 1.6,1.1 2.3,1.8 0.8,0.6 1.5,1.3 2.3,2 0.7,0.7 1.5,1.4 2.1,2.1 0.7,0.7 1.3,1.5 1.9,2.2 0.6,0.8 1.1,1.5 1.6,2.2 0.5,0.7 0.9,1.4 1.3,2 0.4,0.6 0.7,1.2 1,1.8 0.3,0.5 0.5,1 0.7,1.4 0.4,0.8 0.6,1.2 0.6,1.2 0,0 -0.2,-0.4 -0.6,-1.2 -0.2,-0.4 -0.5,-0.9 -0.8,-1.4 -0.3,-0.5 -0.6,-1.1 -1.1,-1.7 -0.4,-0.6 -0.9,-1.3 -1.4,-2 -0.5,-0.7 -1.1,-1.4 -1.7,-2.1 -0.6,-0.7 -1.3,-1.4 -2,-2.1 -0.7,-0.7 -1.4,-1.4 -2.2,-2.1 -0.8,-0.6 -1.5,-1.3 -2.3,-1.9 -0.8,-0.6 -1.6,-1.1 -2.3,-1.7 -0.8,-0.5 -1.5,-1 -2.3,-1.4 -0.7,-0.4 -1.5,-0.8 -2.1,-1.1 -0.7,-0.3 -1.3,-0.6 -1.8,-0.8 -0.6,-0.2 -1,-0.4 -1.5,-0.6 -0.8,-0.3 -1.3,-0.5 -1.3,-0.5 z"
           id="path686"
           style="fill:#ffd0ac" />
        <path
           class="st17"
           d="m 312.5,295.4 c 0,0 1.4,-0.3 3.6,-0.7 2.2,-0.4 5.1,-0.8 8.1,-0.7 1.5,0.1 3,0.2 4.3,0.6 1.3,0.3 2.6,0.8 3.6,1.2 1,0.5 1.8,1 2.3,1.3 0.5,0.4 0.8,0.6 0.8,0.6 0,0 -0.3,-0.2 -0.8,-0.6 -0.5,-0.4 -1.3,-0.8 -2.3,-1.2 -2,-0.9 -4.9,-1.5 -7.8,-1.4 -2.9,0 -5.8,0.5 -7.9,1 -2.1,0.5 -3.5,0.8 -3.5,0.8 z"
           id="path688"
           style="fill:#ffd0ac" />
      </g>
      <path
         class="st11"
         d="m 295.1,351.6 c -0.1,-2.3 -1.7,-4.4 -3.7,-5.5 -2,-1.2 -4.3,-1.6 -6.6,-1.8 -5.4,-0.4 -10.9,0.7 -15.7,2.9 9.1,1.2 17.2,1.9 26,4.4 z"
         id="path692"
         style="fill:#d6623e" />
    </g>
  </g>
</svg>
